<svg xmlns="http://www.w3.org/2000/svg" width="145" height="92" viewBox="0 0 145 92">
  <path d="M93.4611819,72.0603535 C92.2132438,72.5971073 90.430475,72.5523778 89.628229,72.1498124 C89.8510751,72.3287304 89.8956443,72.7312957 90.0739212,72.9996726 C91.3218594,72.8207547 93.0600589,73.0891315 93.4611819,72.0603535 Z M84.8593225,69.1082078 C85.7061377,69.0187488 85.973553,68.3478066 86.2409683,67.7215939 C84.9484609,68.3030771 83.5222459,67.8557823 82.5417231,67.2742991 C82.7199999,68.7056424 84.0570765,68.3478066 85.3050147,68.5267245 C85.2604455,68.8398309 84.9038917,68.7951014 84.8593225,69.1082078 Z M60.9256515,23.528867 C61.9953128,19.1901074 63.5552355,17.7140346 64.5357583,16.5510681 C65.8282657,15.0749952 66.6305116,14.1804056 67.923019,13.1068981 C68.2350035,12.8832507 69.0818187,12.7490622 68.8589726,12.167579 C65.2488658,13.7331108 62.3964357,18.2955178 61.0147899,21.8291468 C60.4353901,22.9473838 60.0788363,24.4681861 59.7668518,25.8995295 C59.410298,27.4203319 58.7863289,29.2095111 59.4548672,30.6855839 C60.2571132,29.9699123 59.9005594,28.6280278 60.0788363,27.5992498 C60.3016824,26.2126359 60.7028054,24.826022 60.9256515,23.528867 Z M82.8537076,64.009047 C83.1656921,64.9036366 85.171307,65.6640378 85.3050147,65.7087672 C84.547338,65.0825545 83.8787997,64.3668828 82.8537076,64.009047 Z M85.6169992,69.1082078 C85.6169992,69.77915 86.0181222,70.0475269 86.2409683,70.4948217 C87.6226141,70.8526575 89.5836598,70.7184691 89.4499521,69.4213141 C88.4694293,70.4053627 86.374676,70.2711743 85.6169992,69.1082078 Z M51.4769769,38.1106777 C50.9867155,42.0021425 52.2792229,47.0565738 53.4825918,49.5166953 C53.9728532,50.5454733 54.4185454,52.2004641 55.4882067,52.1557346 C54.8642376,49.5614247 52.3683613,45.7146894 52.100946,41.5101182 C51.7889614,36.4109575 53.8391455,32.2958452 59.1874519,33.3246233 C60.0342671,33.9061065 60.4353901,34.9796141 61.1930668,35.6505563 C61.7724667,34.5770488 62.441005,33.6377297 62.8866972,32.4300337 C57.8949445,29.2542406 52.100946,32.6984106 51.4769769,38.1106777 Z M80.8480927,62.3540562 C80.9818004,62.8460805 81.5612002,63.6512111 82.0960309,63.2933753 C81.516631,63.1144574 81.2937849,62.6224331 80.8480927,62.3540562 Z M50.6747309,12.167579 C47.0646241,16.8641744 45.816686,25.4522347 46.5297935,33.4588117 C47.9114393,33.0115169 47.1983318,30.6408545 47.1537626,29.4331585 C46.9754857,25.1838578 47.5548856,21.4265815 48.4017007,18.1613294 C48.9811006,15.8353964 50.1844695,14.0462172 50.6747309,12.167579 Z M94.6645508,82.2586751 C97.2495656,86.8210821 106.252548,81.2746265 102.196749,77.785727 C104.648056,81.319356 97.9181039,84.3609606 94.6645508,82.2586751 Z M52.5466382,59.7150168 C55.0425145,63.6959406 59.4548672,66.0218736 65.293435,66.5138979 C67.521896,66.6928158 68.9035418,66.4691684 70.3743261,67.2742991 C70.9982952,67.3190285 70.8645875,66.5138979 71.6222642,66.6480863 C74.6975404,66.8717337 76.43574,65.7982262 78.3967856,64.9483661 C76.6140168,65.127284 74.5638327,65.5745788 73.3158946,64.6352597 C73.1376177,65.7087672 74.1627098,65.5298493 74.5638327,66.0218736 C71.8005411,66.8270043 69.7057878,65.7982262 67.9675882,64.7694481 C67.521896,64.9930956 68.2795727,65.4851198 67.8338805,65.7087672 C60.7473746,65.037825 52.3683613,62.9802689 52.7694843,55.3762572 C52.5466382,55.823552 52.4574997,56.4050353 52.1455152,56.7628711 C48.6245468,54.2580202 43.2316712,48.2195403 42.6077022,41.957413 C42.0283023,36.1873101 45.5492707,33.950836 50.7638694,34.5323193 C51.5661153,34.8006962 51.5215461,35.4269089 51.8335307,35.9189332 C52.1455152,35.247991 52.5912074,34.7112372 52.7694843,33.9061065 C47.1091934,31.5801736 41.4489024,36.2320395 41.5380409,41.4653888 C41.6717485,49.3825068 48.1342854,54.5263971 52.0118075,58.149485 C51.7443922,58.9546157 51.7889614,59.4019105 51.699823,60.1623116 C52.0563768,60.6096065 52.0563768,59.6702874 52.5466382,59.7150168 Z M78.5304933,64.9483661 C79.2436008,64.8589071 79.9121391,64.6799892 79.9121391,63.8748585 C78.7979086,64.009047 78.1739395,63.6959406 77.2825551,63.5617522 C77.2379859,64.5010713 78.5304933,64.1432354 79.1098931,64.5010713 C79.1990316,64.9036366 78.3076472,64.3668828 78.5304933,64.9483661 Z M89.4499521,72.0603535 C89.4945214,72.105083 89.5390906,72.105083 89.5836598,72.1498124 C89.5836598,72.105083 89.4945214,72.0603535 89.4499521,72.0603535 Z M109.149547,63.4275637 C109.149547,63.0249984 109.728947,63.2039163 109.773516,62.801351 C109.595239,62.5777036 109.060409,62.5777036 108.837563,62.801351 C108.792994,63.1591868 108.882132,63.3828343 109.149547,63.4275637 Z M127.913189,82.7059699 C128.046896,83.3321826 128.581727,83.55583 129.161127,83.7794774 C128.938281,83.1979942 128.269743,83.1085352 127.913189,82.7059699 Z M131.746142,64.5010713 C132.41468,64.7694481 132.682095,63.8301291 132.99408,64.1879649 C131.83528,65.127284 130.631911,66.1113326 129.161127,66.8270043 C127.645773,67.5426759 125.863005,67.7215939 124.704205,68.8398309 C126.308697,68.7503719 127.913189,67.8110528 129.473111,67.0059222 C130.943896,66.2007915 132.592957,65.4403904 133.796326,64.5458007 C134.375726,64.0985059 134.643141,63.3381048 135.356248,63.1591868 C137.629279,62.5329741 139.456617,63.8301291 141.061109,64.7247187 C140.036017,63.4722932 137.451002,62.0856793 135.222541,62.5777036 C134.732279,62.6671626 134.375726,63.2933753 133.840895,63.5170227 C132.949511,63.7406701 131.523296,63.3828343 131.746142,64.5010713 Z M96.8484426,74.0731801 C96.2244735,74.8783108 94.3525663,74.5204749 93.6394588,74.0731801 C93.282905,74.5204749 94.1297202,74.8335813 93.9514433,75.6387119 C95.2885199,75.5939825 97.2495656,75.370335 96.8484426,74.0731801 Z M131.924419,62.4882446 C131.389588,62.4435152 130.67648,62.6224331 130.364496,62.3540562 C130.587342,62.1751383 130.364496,61.8620319 130.67648,61.4147371 C130.67648,61.4147371 130.67648,61.4147371 130.67648,61.4147371 C130.765619,61.0569013 130.765619,60.7437949 130.67648,60.5201475 C130.007942,59.3124515 129.339404,58.7756977 128.046896,58.0600261 C126.397835,57.0759775 125.149897,56.5839532 122.342036,56.8076006 C116.681745,57.2548954 108.570147,58.1047555 104.514348,61.1463602 C101.840195,63.1144574 100.770534,66.1113326 99.2997497,68.0794297 C92.3469514,63.6959406 81.7840463,59.4913694 76.8368629,53.0950537 C74.2964174,49.8298016 72.1570949,44.9095588 74.0735713,39.810398 C74.608402,39.3631032 74.8312481,38.602702 75.3215095,38.1106777 C75.4106479,37.4397355 75.0986634,37.3502765 75.3215095,36.8582523 C77.861955,34.4875898 79.7784314,31.4459851 83.2993998,30.0593712 C84.3690611,31.0881493 86.374676,30.7750429 87.7563218,29.7462648 C90.6087518,27.6887087 93.9960125,21.4713109 92.3023822,17.3114692 C92.0349669,16.5510681 91.2327209,14.493512 89.0933984,13.0621686 C88.8705523,12.9279801 88.6922754,12.8385212 88.5585677,12.7937917 C88.202014,12.6148738 87.800891,12.4359559 87.399768,12.3017674 C87.6671833,12.5701443 87.9345987,12.7937917 88.2465832,12.9727096 C88.2465832,12.9727096 88.2465832,12.9727096 88.2465832,12.9727096 C88.2465832,12.9727096 88.2911524,12.9727096 88.3357216,13.0174391 C88.3802909,13.0621686 88.4248601,13.0621686 88.4694293,13.1068981 C89.0488292,13.5094634 90.7424595,14.8066183 91.5892747,16.9089039 C92.0349669,18.7428126 92.1241053,21.2476635 91.0990133,22.4553595 C90.6978903,20.8898277 90.6533211,20.084697 89.9847828,18.3849768 C89.3608137,16.640527 88.6477062,15.5670195 87.8900294,14.5829709 C84.8147533,10.6020472 75.9009093,12.2123085 72.9593408,15.0302657 C76.8368629,13.5541929 81.9623232,11.8097431 85.7061377,13.9567582 C87.6226141,15.0302657 88.9596907,17.8929525 89.0933984,20.3083444 C89.3162445,24.5576451 86.1518299,26.9283076 83.0765537,28.4938394 C83.3885382,27.9123561 83.1211229,27.3308729 83.0765537,26.6599307 C82.2743078,25.944259 80.3132621,25.8995295 79.0653239,26.2126359 C75.9900478,26.9283076 73.806156,30.3277481 72.9147716,32.6984106 C73.0930485,33.1904349 74.2518482,33.5035412 73.9844329,33.950836 C73.6724483,33.6824591 72.8702024,33.8613771 72.2908025,33.8166476 C69.6612186,35.3821794 71.2657105,38.692161 70.7308798,41.8232246 C70.6417414,42.3152489 70.2851876,42.6730847 70.2851876,43.0756501 C70.2851876,43.8360512 70.9982952,44.5069934 70.7308798,45.0884767 C71.3548489,45.4463125 71.8896795,45.8936073 72.5582178,46.1619842 C73.9844329,50.142908 75.4552171,53.676537 78.0848011,56.1813879 C83.9233689,60.6096065 92.8372128,65.037825 99.9237188,68.9740193 C101.260795,69.689691 102.597872,71.0315754 103.934949,71.4341408 C105.851425,72.0603535 106.653671,70.897387 107.767901,70.3606332 C108.926701,71.1210344 110.620332,72.2392714 112.4031,71.926165 C110.620332,71.4788702 108.035317,71.1657639 108.391871,68.9740193 C107.545055,69.0187488 106.921086,70.2264448 105.940563,70.2264448 C105.00461,70.2264448 104.068656,69.4213141 104.113225,68.5267245 C104.202364,66.4691684 107.27764,67.0953811 108.258163,65.8876852 C107.678763,66.0218736 107.010225,66.1113326 106.252548,66.0218736 C105.851425,65.7087672 106.074271,64.7694481 105.806856,64.3221533 C104.692625,64.4116123 103.84581,64.2326944 103.667533,63.3828343 C104.024087,62.2645972 104.781764,61.5041961 105.985133,61.2358192 C106.609102,61.683114 106.965656,62.4435152 107.545055,62.9355394 C108.079886,62.6671626 107.545055,62.1304088 107.678763,61.3700076 C107.545055,61.0121718 106.564533,61.4594666 106.742809,60.7437949 C109.595239,58.4178619 117.662268,57.3890839 123.188851,57.031248 C126.798958,56.8076006 129.161127,58.9098862 130.097081,61.1910897 C126.576112,59.2229926 120.871252,59.357181 116.41433,59.8044758 C114.1413,60.0281232 112.135685,59.8044758 110.575762,60.7437949 C112.492239,60.6543359 116.503469,60.8779833 117.172007,60.8779833 C119.043914,60.9227128 120.113575,60.7885244 121.628929,61.1910897 L121.762636,61.1910897 C122.654021,63.2039163 124.748774,64.0537765 125.773866,65.9771441 C123.456267,68.7951014 117.617699,68.8845604 117.305714,73.22332 C119.133052,69.5107731 124.124805,69.0634783 126.531543,65.9771441 C127.86862,64.9483661 129.651388,64.3668828 130.542773,62.89081 L131.612434,62.89081 C131.612434,62.89081 131.612434,62.89081 131.612434,62.89081 C131.612434,63.1144574 132.548388,63.1144574 132.548388,62.89081 C132.548388,62.89081 132.548388,62.89081 132.548388,62.89081 L132.682095,62.89081 C132.682095,62.89081 132.682095,62.89081 132.682095,62.89081 C132.682095,62.89081 132.682095,62.89081 132.682095,62.89081 C133.038649,62.9355394 133.261495,62.8460805 133.306064,62.5777036 C133.172357,62.3540562 132.459249,62.5329741 131.924419,62.4882446 Z M125.773866,64.3668828 C124.481359,64.0985059 124.169374,62.801351 123.322559,62.0409498 C124.882482,61.4594666 126.308697,62.801351 125.773866,64.3668828 Z M100.235703,68.0347002 L100.859672,66.6480863 C101.528211,65.5745788 102.464164,64.7694481 102.998995,63.5617522 C103.578395,64.2326944 104.068656,65.0825545 105.628579,64.8141776 C106.207979,67.2742991 104.024087,67.8110528 101.617349,67.7663233 C101.661918,69.0187488 102.909857,68.571454 103.934949,68.5267245 C103.756672,69.2871257 104.291502,69.4213141 104.246933,70.0922563 C105.405733,70.807928 106.475394,70.5395511 107.455917,69.9580679 C105.405733,72.6418367 102.15218,69.5107731 100.235703,68.3925361 L100.235703,68.0347002 Z M141.595939,65.5745788 C143.779831,67.5874054 142.041631,74.8335813 139.27834,73.8942622 L139.27834,73.7600737 C140.481709,68.7951014 136.247633,69.77915 132.058126,69.6002321 C129.695958,69.5107731 126.798958,69.1976667 124.97162,69.4660436 C123.456267,69.6449615 120.826683,70.3606332 120.960391,71.7919766 C122.743159,72.2392714 124.570497,70.807928 126.977235,70.7184691 C129.918804,70.5842806 133.751757,71.1657639 133.751757,71.1657639 C135.445387,71.4341408 137.094448,71.7025176 138.832648,71.926165 C139.322909,72.1498124 138.69894,72.3287304 138.386955,72.3734598 C138.074971,72.4629188 134.643141,71.9708945 131.300449,71.4788702 C129.383973,71.1657639 126.308697,70.9868459 124.525928,71.6130587 C123.322559,72.015624 122.743159,72.9102136 121.58436,72.6865662 C120.826683,72.5523778 120.603837,71.7025176 119.890729,71.6130587 C118.999345,73.8048032 121.406083,74.3862865 122.654021,75.3256056 C125.194466,77.2489732 126.620681,81.0509791 129.250265,82.5717814 C131.83528,79.1723409 136.203064,77.5173501 139.412047,74.6993928 C139.634894,74.9230402 140.214293,74.8335813 140.659986,74.8335813 C142.576462,73.1785905 144.314662,66.7375453 141.595939,65.5745788 Z M110.531193,79.3065293 C111.511716,79.4854473 111.28887,80.9167906 111.912839,81.4535444 C112.9825,79.8432831 115.656653,81.8561097 116.99373,81.4535444 C115.389238,80.9615201 113.963023,80.2905779 112.091116,80.0669305 C111.645424,79.7985536 111.912839,78.7697756 111.155162,78.8145051 C111.378008,79.4407178 110.486624,78.903964 110.531193,79.3065293 Z M119.133052,81.4982739 C118.910206,80.9615201 118.197099,80.8720612 117.751407,80.5589548 C117.929684,81.1851675 118.642791,81.229897 119.133052,81.4982739 Z M118.553653,80.0669305 C118.598222,79.6196357 118.509083,79.2617999 118.241668,79.1276114 C118.10796,79.5301767 117.885114,80.1563895 118.553653,80.0669305 Z M115.612084,77.1595143 C116.770884,77.2042438 118.063391,77.875186 118.553653,78.0988334 C118.330807,77.0700553 116.726315,76.7122195 115.612084,77.1595143 Z M36.2343037,41.957413 C38.8193185,40.4813402 35.8331808,37.3502765 34.8526579,34.7112372 C33.1144584,30.0593712 32.6241969,23.3499491 33.9167043,19.1006485 C30.5294436,26.0784474 33.2035968,36.1873101 36.2343037,41.957413 Z M126.085851,86.7316231 C125.283605,86.1501399 124.615067,85.4344682 123.634544,85.0319029 C124.213944,85.7028451 125.194466,86.8658116 126.085851,86.7316231 Z M124.39222,82.0797571 C124.124805,82.7506993 123.901959,83.5111005 124.525928,83.9136658 C124.347651,84.0031248 124.169374,84.0925838 124.080236,84.2267722 C124.659636,84.4504196 125.506451,85.7475745 126.085851,84.9871734 C124.793343,84.6293375 124.837913,82.9296173 124.39222,82.0797571 Z M117.127438,82.2586751 C117.439422,82.7954288 118.063391,83.6005595 117.885114,84.0925838 C115.968638,84.3609606 113.294485,84.4951491 112.492239,83.1532647 C111.155162,83.0190762 108.837563,83.6005595 107.589625,82.8401583 C107.099363,83.3321826 106.341686,83.55583 106.029702,84.2267722 C106.69824,84.5398786 107.233071,83.55583 108.035317,83.466371 C109.506101,83.9136658 111.422577,84.5398786 112.492239,83.7794774 C113.606469,84.9424439 115.567515,84.4056901 116.637176,85.4791977 C116.592607,86.1501399 116.726315,86.5974347 116.99373,86.910541 C117.038299,86.9552705 117.038299,87 117.082868,87 C117.082868,86.9552705 117.082868,86.9552705 117.082868,86.910541 C116.99373,85.5239271 117.57313,84.763526 118.330807,84.2267722 C119.578745,85.2555503 121.361513,85.4344682 123.099713,85.6133861 C121.673498,84.8082555 119.801591,84.3609606 118.330807,83.6005595 C117.974253,83.2874531 117.617699,82.0350277 117.127438,82.2586751 Z M126.486974,86.9552705 L126.977235,86.9552705 C126.754389,86.6868936 126.486974,86.3737873 126.219558,86.1501399 C126.264128,86.4185168 126.353266,86.6868936 126.486974,86.9552705 Z M100.681396,86.1054104 C98.0072423,87 92.5252283,86.8210821 92.0795361,83.645289 C91.9012592,82.3928635 92.658936,79.9327421 93.4611819,78.993423 C93.7731665,78.6355871 95.5559352,77.3831617 96.6701657,76.9805963 C98.0072423,76.4885721 100.057426,76.66749 101.127088,76.9805963 C99.2106113,71.7025176 93.3274743,69.5555026 88.5139985,67.7215939 C92.4806591,70.2711743 97.6061194,71.6577882 99.8791496,75.9070888 C96.5364581,76.0412773 94.3971355,77.4278912 92.658936,79.1276114 C91.9903977,78.6803166 91.054444,78.5461282 90.5196134,78.0541039 C90.3413365,79.5301767 91.5447055,79.5749062 92.658936,79.7538241 C90.8761672,81.9008392 91.5447055,85.5239271 93.1046282,86.910541 L102.419595,86.910541 C103.712102,86.3290578 104.960041,85.6133861 105.895994,84.5398786 C103.934949,84.0478543 102.419595,85.5239271 100.681396,86.1054104 Z M83.9233689,81.9455687 C84.0570765,82.4823225 83.745092,82.6165109 83.6113843,82.8848878 C81.3383541,84.3609606 77.861955,85.5239271 74.3855559,84.4504196 C74.5192635,84.0925838 74.5638327,83.3321826 75.0095249,82.8848878 C78.1739395,82.3034045 80.0458468,80.3353074 84.1016458,81.0509791 C84.0570765,80.6036843 84.146215,80.2458484 84.4136303,80.11166 C86.998645,78.7250461 90.029352,77.8304565 92.257813,76.0860067 C90.5641826,76.4438426 89.0042599,76.4438426 87.6226141,75.7729004 C87.4443372,76.9805963 88.5585677,76.8911374 89.0042599,77.4726206 C86.6420913,78.4566692 83.1656921,80.9167906 80.5361082,78.8592345 C80.4024005,79.4854473 80.7589543,79.6643652 80.6698158,80.2458484 C77.8173858,81.7666508 73.2267561,83.2874531 69.5720801,81.4982739 C69.6166493,80.9615201 69.9732031,80.6484138 70.3297569,80.4247664 C74.1627098,80.2458484 76.5694476,77.3831617 80.491539,78.2777513 C80.7143851,77.875186 80.8035235,77.3384322 81.2492157,77.2042438 C83.6113843,76.7122195 84.8147533,75.1466876 87.7117526,75.1914171 C87.5334757,74.341557 88.3802909,74.5652044 88.4694293,73.9389917 C87.4443372,74.1626391 86.2855375,74.341557 84.9484609,74.252098 C83.2993998,72.4629188 86.374676,72.1945419 86.9540758,71.1657639 C85.57243,72.1945419 83.6113843,72.1945419 81.4274926,72.105083 C81.4720618,73.6258853 79.9121391,73.4469674 79.28817,74.252098 C80.8035235,73.8495327 82.4971539,72.8207547 84.3690611,73.3127789 C84.146215,73.9837211 84.5027687,74.9230402 84.9930302,75.3256056 C83.343969,76.3991131 80.6698158,77.2042438 78.3967856,76.7122195 C77.9510934,76.6227605 78.5304933,77.5620796 78.0848011,77.4726206 C74.3855559,78.6355871 69.8840647,81.0957086 65.3380042,79.4854473 C65.1597274,79.9774715 65.8282657,79.6196357 65.6499888,80.11166 C64.268343,80.3800369 63.6889431,78.7697756 64.5803275,78.0988334 C69.8394954,78.0093744 72.8256332,75.6834414 78.1293703,75.6387119 C78.3076472,75.1019582 79.2436008,74.5204749 79.0653239,74.0731801 C78.2185088,74.6546634 76.3466015,75.0124992 75.232371,74.3862865 C75.4106479,74.8783108 75.3660787,74.9677697 75.0986634,75.3256056 C71.2211413,76.3096541 67.120773,77.7409975 62.1735896,77.1595143 C61.5941898,76.4438426 60.4353901,75.8623593 59.7222826,75.7729004 C59.7668518,75.3256056 59.811421,74.8335813 60.1679747,74.6993928 C66.095681,75.1466876 69.8840647,73.4469674 75.232371,73.3127789 C77.059709,70.7631985 82.2297385,71.5683292 84.4581995,69.4660436 C82.4525846,69.77915 80.8926619,70.897387 78.7533394,70.2264448 C77.6836781,72.1498124 74.0290021,72.8207547 72.2908025,71.1657639 C71.8005411,71.8367061 72.9593408,72.0603535 72.6027871,72.5523778 C66.3630963,73.7153443 56.1121758,76.0412773 54.1511301,69.1529372 C54.3739762,69.1082078 54.4185454,68.8845604 54.5968223,68.8398309 C59.4994365,71.5683292 66.1402502,70.6737396 72.2908025,70.4053627 C72.7364947,70.3159037 72.5136486,69.5107731 73.0484793,69.4660436 C75.0095249,69.2423962 76.1683246,68.3030771 78.5750625,68.5267245 C79.7338622,67.7663233 81.1600773,67.3190285 82.7199999,66.9611927 C82.7199999,66.5586274 82.6754307,66.2007915 82.8537076,66.0218736 C81.5612002,66.0666031 80.3578313,66.0218736 79.6447238,65.5745788 C79.7784314,66.5586274 81.2937849,66.2007915 81.7840463,66.8270043 C80.0458468,67.453217 77.3271244,68.0347002 75.633494,66.9611927 C75.1432326,67.4084875 76.43574,67.9452413 76.0791862,68.2136182 C74.6529712,68.9292898 72.1570949,69.3318552 70.552603,68.5267245 C70.2406184,68.660913 70.5080337,69.3765846 70.1069108,69.4660436 C61.9061743,70.1817153 52.2346536,70.4053627 51.3432692,61.9067614 C50.6301617,61.7278435 51.3432692,62.9355394 50.897577,62.9802689 C44.5687478,60.6990654 39.3987183,56.6734122 36.4571498,50.9480386 C36.1451653,50.3218259 35.87775,49.3825068 35.6994731,48.4879172 C35.5211962,47.6380571 35.5211962,46.2514432 34.9417964,46.1619842 C34.4961042,49.6508837 35.4320578,52.6924884 37.3931034,54.9736919 C37.7942264,55.4209867 39.0421646,56.7628711 39.2204415,56.9865185 C42.3848561,60.3412296 47.2874702,62.5329741 50.897577,64.5458007 C50.4518848,66.3797094 51.7443922,67.2742991 51.6552538,68.2583476 C45.4601322,67.5426759 38.0170725,65.0825545 33.9612735,61.3252781 C32.3567816,59.8492053 31.7328125,57.7021902 31.5099664,55.1526098 C31.5099664,55.3315277 31.4653972,55.5104457 31.1979819,55.4657162 C30.6631513,55.0631509 29.3706439,54.1685612 29.0586594,53.9001844 C26.5182138,51.8426283 23.6657838,48.4879172 21.5264612,44.7753703 C18.8077388,40.1682338 14.2171092,30.6408545 20.2785231,27.1966845 C20.5013692,35.1138025 23.8886299,41.6890362 27.1867521,46.9671149 C28.5238287,49.1141299 29.9500437,51.5295219 32.2676432,52.379382 C32.3122124,51.8873577 32.6241969,51.7084398 32.5796277,51.1269566 C25.0474296,44.0149692 16.5347086,25.0496694 24.6017374,12.8385212 C27.9444289,7.7393604 33.649289,4.60829676 41.2260563,5.9054517 C42.6522714,6.03964014 41.9837331,6.3527465 41.6717485,6.97895923 C40.4238104,9.21543326 39.2204415,11.4966368 38.5964724,14.404053 C37.7496572,15.1197247 36.5017191,15.52229 35.9668884,16.5510681 C36.8582728,16.3274207 37.5268111,15.2091837 38.5964724,15.611749 C37.5713803,21.9633352 37.8833649,29.7015354 39.2204415,35.3821794 C39.532426,36.7240638 39.4432876,38.513243 40.6020873,39.2289147 C40.8695026,39.0052673 41.1369179,39.1394558 41.2260563,38.9158084 C39.532426,33.0115169 37.6159495,25.3180463 38.9084569,17.4456577 C40.2901027,8.94705638 47.0646241,1.70088052 55.5327759,0.761561429 C59.009175,0.358996104 62.6638511,1.43250364 64.7586044,3.53478923 C62.2181589,4.11627247 60.1234055,6.88950027 57.5383908,7.69463092 C56.0230373,8.18665521 54.4185454,8.09719625 53.2151765,8.94705638 C52.1455152,9.66272807 51.6552538,10.7809651 50.897577,12.0333905 C52.8586227,10.2442113 54.9088068,7.64990144 58.4297752,8.81286793 C60.3462516,7.06841819 62.4855742,5.50288637 64.6694659,4.07154299 L64.7140352,4.02681351 C65.2042966,3.75843663 65.9619733,3.71370715 66.095681,3.08749442 C63.3769586,1.20885623 60.212544,-0.0435692217 56.4241603,0.00116025887 C50.897577,0.09061922 46.7972088,2.28236377 43.9447788,4.65302624 C43.8556403,4.69775572 43.8110711,4.78721468 43.8110711,4.78721468 C41.5380409,4.11627247 39.5769952,3.3558713 36.9919805,3.75843663 C29.7271977,4.78721468 23.8440606,11.0940714 21.4373228,16.9536334 C10.116741,18.4744357 3.52049643,31.0881493 7.44258777,43.2098385 C4.50101926,45.8488779 1.33660466,47.9511634 0.356081826,52.3346525 C0.222374167,52.9608653 0.177804947,53.3187011 0.133235727,53.7659959 C-1.07013321,63.2486458 6.1500804,70.9868459 10.8298485,75.9518183 C11.2755407,75.5939825 11.5875252,75.0572287 12.2114943,74.8783108 C13.8605554,76.2649247 15.197632,77.9646449 17.1141085,79.0381525 C17.2923853,79.6643652 17.6489391,80.2905779 18.0500621,80.6036843 C22.9526762,84.2267722 34.8526579,84.9424439 43.2762405,84.1373132 C43.8556403,85.6133861 45.8612552,86.3737873 47.3320395,86.9552705 L51.699823,86.9552705 C51.5661153,86.910541 51.3878385,86.8210821 51.2541308,86.6868936 C50.897577,85.792304 50.0507619,86.0159514 50.0061926,85.0319029 C54.9088068,84.1820427 59.7668518,83.3321826 64.1792045,81.9455687 C65.3380042,83.2874531 68.2795727,81.9902982 69.3938032,82.8848878 C69.6166493,83.9583953 68.1012959,84.0925838 67.2544807,84.4504196 C65.293435,85.1660913 62.8866972,86.2395988 60.3462516,86.9552705 L63.2878201,86.9552705 C64.4466198,86.6421642 65.5608503,86.2843283 66.6305116,85.8370335 C67.521896,85.4791977 68.4132804,84.674067 69.3938032,84.584608 C70.7754491,84.4504196 72.4245102,85.4344682 74.0290021,84.7187965 C74.1627098,85.4344682 74.5638327,85.8370335 74.6529712,86.5527052 C74.4301251,86.6868936 74.207279,86.7763526 73.9844329,86.910541 L78.5304933,86.910541 C78.0848011,86.6421642 77.7728166,86.2843283 77.5499705,85.792304 C79.8675699,85.3450092 81.8731848,84.584608 83.5668151,83.466371 C86.6420913,84.9871734 88.4694293,81.9902982 90.1630597,80.6931432 C88.2911524,81.3640854 86.2409683,83.9583953 83.9233689,81.9455687 Z M56.6915756,75.7729004 C57.7166677,76.1307362 58.9646058,75.8176299 59.4548672,76.7122195 C58.8308982,77.875186 57.3601139,77.5620796 56.2458834,77.785727 C50.7638694,78.903964 43.4099481,80.1563895 39.4878568,76.5333015 C38.5073339,75.6387119 37.8833649,74.252098 37.4822419,72.8207547 C37.5713803,72.6865662 37.6605188,72.5523778 37.6159495,72.3734598 C40.8695026,73.6706148 44.390471,74.5204749 48.4017007,74.6993928 C50.3181772,74.7888518 52.6357766,74.252098 54.7305299,74.6993928 C55.4436375,74.8335813 55.9338989,75.459794 56.6915756,75.7729004 Z M33.649289,62.6224331 C33.8275659,62.6224331 34.0058427,62.6671626 34.0949812,62.801351 C36.9919805,65.7087672 41.4489024,67.453217 46.2623782,68.5267245 C47.9114393,68.8845604 50.0507619,68.8398309 51.4769769,69.4660436 C52.2792229,69.77915 52.8140535,70.7184691 53.6162994,71.0315754 C53.527161,72.1945419 54.4631146,72.3287304 54.5522531,73.3575084 C46.7080704,73.9389917 33.8275659,73.3575084 33.4710121,63.1591868 C33.4710121,62.5329741 33.5601506,62.6224331 33.649289,62.6224331 Z M20.8579229,18.1613294 C20.679646,20.2188855 19.9219693,23.7525145 20.4122307,26.4810128 C12.4789096,31.2223377 17.9163544,43.165109 21.6601689,48.5773762 C22.6852609,50.0981785 24.111476,51.5295219 25.4931218,52.9161358 C27.3204598,54.705315 29.0586594,56.4050353 31.5099664,56.941789 C31.3762588,57.9258376 30.7077205,58.4178619 30.5740128,59.267722 C30.0391822,62.3093267 32.1339355,64.1879649 32.7133354,65.8876852 C24.5571682,63.5170227 18.5848927,57.6574607 13.9496939,51.2164155 C11.8549405,48.3089993 8.8688028,44.372805 8.11112607,39.9445864 C6.19464962,29.1647816 10.8298485,19.9952381 20.8579229,18.1613294 Z M15.7770319,74.2073686 C11.6766636,72.4181893 7.93284919,69.5555026 5.30326522,66.0218736 C2.94109657,62.89081 0.356081826,58.7756977 1.15832778,53.0503242 C1.60401998,49.6956132 3.74334253,45.3121241 8.06655685,46.1172547 C8.95794124,48.3537288 9.44820266,50.9927681 10.6961408,52.9161358 C10.8298485,52.9608653 10.8298485,52.8714063 10.8298485,52.7819474 C10.8298485,52.0215462 11.4538175,51.8426283 11.5875252,51.2164155 C16.7575547,58.4178619 23.0418147,64.5458007 32.4904893,67.4084875 C32.3567816,68.3925361 32.7133354,68.9292898 32.6241969,69.8686089 C31.8665202,70.0475269 28.3455518,68.7503719 27.2313213,68.3030771 C22.1504303,66.3797094 17.1141085,63.4275637 13.8605554,59.357181 C12.5234788,57.7021902 12.0777866,55.5999046 10.9189869,53.497619 C9.40363344,55.5551751 10.9189869,59.2229926 12.3006327,61.0569013 C16.2227241,66.2902505 25.3148449,70.0922563 32.4459201,71.2552228 C33.0253199,73.6258853 34.5852426,74.9677697 36.5908575,75.9070888 C36.7245652,77.6068091 37.705088,78.4119397 38.1507802,79.7538241 C32.4904893,79.2617999 26.1170908,77.6515386 21.5264612,76.0412773 C19.654554,75.370335 17.5152314,74.9677697 15.7770319,74.2073686 Z M39.7552721,83.645289 C34.5852426,83.9136658 30.1283206,82.8848878 25.3148449,81.6324623 C22.1504303,80.8273317 18.1837697,79.2170704 17.3369546,76.8464079 C17.4706622,76.8016784 17.4706622,76.7122195 17.6489391,76.7122195 C21.9721534,78.2777513 27.0084752,79.7090947 32.4013508,80.4247664 C36.6354267,81.0062496 40.334672,81.229897 43.4990866,82.8848878 C42.6522714,83.6900184 41.0477795,83.55583 39.7552721,83.645289 Z M51.7443922,83.7794774 C48.5799776,83.9583953 45.9949629,82.7954288 43.9002095,81.0062496 C44.3459017,79.4407178 46.0841013,80.11166 47.1091934,80.0669305 C51.1649924,79.8880126 55.9784681,78.993423 59.2765904,78.0541039 C60.0342671,78.5461282 61.0593591,79.3065293 62.2181589,79.6196357 C62.8866972,79.7985536 63.86722,79.3065293 64.2237737,80.2458484 C61.0593591,81.8561097 56.156745,83.55583 51.7443922,83.7794774 Z M110.397485,86.1054104 C110.040932,86.3737873 109.639809,86.6868936 109.149547,86.910541 L110.174639,86.910541 C110.575762,86.4185168 110.887747,85.792304 111.021454,84.9871734 C110.352916,84.9424439 110.575762,85.7475745 110.397485,86.1054104 Z M52.0563768,23.4394081 C51.6552538,26.2126359 50.6747309,29.9699123 51.4324077,32.8773285 C52.6357766,32.0274684 52.1900844,29.8804533 52.1900844,28.2254625 C52.1900844,26.7493896 52.2346536,25.4969642 52.2792229,24.3787272 C52.3683613,22.8131954 53.0814688,18.7875421 53.8837148,16.4616091 C54.8642376,13.6436518 56.8698525,11.2282599 57.8949445,8.9023269 C54.4631146,12.7937917 52.724915,18.6533537 52.0563768,23.4394081 C52.0563768,23.4394081 52.0563768,23.4394081 52.0563768,23.4394081 Z M68.0567266,31.624903 C66.2739579,31.4012556 64.4911891,31.8932799 63.4215278,32.5642221 C60.6582362,35.9189332 59.6777133,43.7913218 61.8616051,48.6221057 C62.0844512,46.5198201 61.1484976,43.8807807 61.237636,41.1970119 C61.4159129,36.5898754 63.4215278,32.5194926 68.4578496,33.0115169 C69.6612186,33.1457054 70.2851876,33.8166476 71.2211413,34.3981308 C72.0679564,32.8773285 69.7949262,31.8485504 68.0567266,31.624903 Z M68.5915573,47.3696802 C68.324142,47.3696802 68.324142,47.5038686 68.5024188,47.5933276 C72.379941,48.6221057 73.4496022,53.9449138 73.4496022,53.9449138 C73.4496022,53.9449138 73.5387407,54.1685612 73.5833099,53.9896433 C73.6278791,53.9001844 73.5387407,53.2292422 73.5387407,53.2292422 C73.5387407,53.2292422 72.5582178,46.609279 68.5915573,47.3696802 Z M86.374676,85.4791977 C86.4638144,86.0159514 86.2409683,86.2843283 85.9289838,86.4185168 C85.5278608,86.5974347 84.9930302,86.7763526 84.4136303,86.9552705 L88.6922754,86.9552705 C88.9151215,86.7763526 89.0488292,86.5079757 89.1379676,86.1501399 C87.8900294,86.2395988 87.3551988,85.6581156 86.374676,85.4791977 Z M66.2293886,48.2642698 C65.293435,47.5933276 64.5803275,49.7850722 63.9117892,50.4112849 C63.6443739,49.9192606 63.4215278,49.4272363 62.8421279,49.3377773 C63.0204048,50.142908 63.6889431,50.4560144 63.9117892,51.1716861 C64.268343,53.4081601 64.8477428,55.0631509 66.0511118,56.4050353 C66.7642193,57.1654364 67.7447421,58.1942145 68.6806957,58.1047555 C67.1653423,56.00247 65.2042966,54.3922087 64.3574814,51.6189809 C64.6694659,50.232367 65.2042966,49.024671 66.2293886,48.2642698 Z M69.3046648,56.00247 C68.7252649,57.8811081 70.3297569,58.8651567 71.6222642,59.4019105 C70.6417414,58.5073209 69.5275109,57.6574607 69.3046648,56.00247 Z M68.2350035,63.4275637 C68.6806957,63.3828343 68.4132804,62.711892 68.9926803,62.801351 C72.1570949,62.5777036 73.7170176,63.5617522 76.3911707,62.4882446 C73.8507252,63.1591868 72.1570949,61.1463602 70.6863106,60.475418 C70.8645875,61.4147371 71.6222642,61.8173024 72.2462333,62.3093267 C69.750357,62.801351 67.6110344,61.593655 66.5413732,60.1623116 C65.9619733,60.9227128 67.1653423,61.5489255 66.8533577,61.9962204 C62.3072973,60.1175822 56.4687295,56.4944942 58.5634828,50.4112849 C54.6859607,56.9865185 62.8421279,62.1751383 68.2350035,63.4275637 Z M11.4538175,78.5461282 C11.2309714,77.9646449 11.6766636,77.1595143 10.8298485,76.8464079 C10.5178639,78.3672102 10.74071,79.6643652 11.141833,80.6931432 C12.0332174,82.9743467 13.5040017,85.0319029 15.1530628,86.910541 L22.7298301,86.910541 C19.7436924,86.0606809 17.1141085,84.8977144 15.598755,83.2874531 C14.0388323,82.0350277 12.2114943,80.6931432 11.4538175,78.5461282 Z M81.917754,10.4678587 C80.0012775,10.870424 78.263078,11.4071778 76.3911707,11.8544726 C75.7672017,11.5860957 74.7421096,10.9151535 74.0735713,11.2282599 C74.608402,11.5413663 75.4997863,11.5413663 75.7672017,12.167579 C73.2267561,13.6883813 69.8840647,15.0749952 67.7893113,17.7140346 C65.2488658,20.8450982 62.6192818,25.2285873 62.2627281,29.4331585 C62.2181589,30.1041007 61.9061743,31.6696325 62.8866972,31.7590915 C63.1986817,27.4203319 64.2237737,24.5576451 65.9619733,21.5607699 C69.4383725,15.5670195 74.9649557,11.4071778 83.9679381,11.5413663 C84.6810456,11.5413663 86.4192452,12.167579 85.6615685,10.7809651 C85.6615685,10.7809651 84.5919072,9.48381014 83.0319845,7.82881936 C80.8035235,5.27923897 77.3716936,3.40060078 72.7364947,3.04276494 C71.0874336,2.9085765 69.1263879,2.81911754 67.9675882,3.80316611 C74.9203865,3.08749442 80.0458468,5.50288637 81.917754,10.4678587 Z M78.3967856,59.7150168 C77.5499705,58.7309683 76.8814322,57.5680018 76.0791862,56.4944942 C75.2769402,57.3890839 76.2128939,58.0152966 76.7031553,58.3284029 C77.6391089,58.9993452 77.5499705,60.2070411 78.3967856,59.7150168 Z M78.7087702,60.1623116 C77.9065242,61.683114 75.8563401,61.2358192 74.8758173,60.1623116 C75.0986634,62.0409498 77.7282473,62.3093267 78.7087702,60.9227128 C79.1990316,61.1910897 79.3773085,61.683114 79.9567083,61.8620319 C79.8230007,60.9227128 78.7087702,60.7885244 78.7087702,60.1623116 Z" transform="translate(1 1)"/>
</svg>
