<svg xmlns="http://www.w3.org/2000/svg" width="703" height="92" viewBox="0 0 703 92">
  <g transform="translate(1 1)">
    <path d="M84.286836,66.2018028 C83.1550084,66.7152241 81.551586,66.6510464 80.828474,66.2659805 C81.0485516,66.4585135 81.0799912,66.8114906 81.2371895,67.0361124 C82.3375774,66.9077571 83.9095601,67.1644677 84.286836,66.2018028 Z M76.4898017,63.506341 C77.2443534,63.4421634 77.464431,62.8003868 77.7473879,62.2227878 C76.5841207,62.7682979 75.2950948,62.3511431 74.4147845,61.805633 C74.6034225,63.1212751 75.7666897,62.8003868 76.8985172,62.9287421 C76.8670776,63.2496304 76.552681,63.2175416 76.4898017,63.506341 Z M54.9221989,21.630417 C55.8968282,17.651402 57.280173,16.2715823 58.1604833,15.2126509 C59.3237505,13.8328312 60.0468625,13.0306104 61.2101297,12.0358566 C61.461647,11.8112348 62.2476383,11.7149683 62.0275608,11.1694582 C58.7578367,12.5813668 56.1797851,16.7850036 54.9536386,20.0580643 C54.4506041,21.0849069 54.1362075,22.4647266 53.821811,23.8124575 C53.5074145,25.1922772 52.9415007,26.8608964 53.5388541,28.2086273 C54.2619662,27.5668507 53.9475696,26.3153863 54.1047679,25.3848102 C54.3562851,24.1333458 54.7021213,22.8497926 54.9221989,21.630417 Z M74.6977414,58.8534606 C74.9806983,59.6556814 76.7727586,60.3937245 76.9299569,60.4258133 C76.2382845,59.8161255 75.6094914,59.1743489 74.6977414,58.8534606 Z M77.1814741,63.506341 C77.1814741,64.1160288 77.5273103,64.3727395 77.7473879,64.7898943 C78.9735344,65.1107826 80.7655947,65.0145161 80.6712757,63.7951405 C79.7909654,64.6936278 77.8731465,64.5652724 77.1814741,63.506341 Z M46.3706129,35.0435482 C45.9304578,38.6054084 47.1251646,43.2582889 48.1626732,45.5365959 C48.6028284,46.467172 48.9801042,47.975347 49.9547335,47.9432582 C49.3888197,45.5686847 47.1251646,42.0389133 46.9050871,38.1561648 C46.6221302,33.4711955 48.4770698,29.6847135 53.2873369,30.6473784 C54.0733282,31.1607997 54.3877248,32.1555535 55.0793972,32.7652413 C55.6138713,31.8025763 56.2112247,30.9040891 56.6199402,29.78098 C52.1555093,26.8929852 46.9679664,30.1018683 46.3706129,35.0435482 Z M72.8742415,57.2811079 C73.0000001,57.7303515 73.5344742,58.5004835 73.9746294,58.1475063 C73.4715949,57.9870622 73.282957,57.5378185 72.8742415,57.2811079 Z M45.6789405,11.2336359 C42.4406562,15.565628 41.277389,23.4273915 41.9376217,30.7757338 C43.1952079,30.358579 42.5349751,28.1765385 42.5035355,27.0855182 C42.3463372,23.2027697 42.8493717,19.737176 43.6039234,16.7529148 C44.1383975,14.5708743 45.2073457,12.9343439 45.6789405,11.2336359 Z M85.3872239,75.5717414 C87.7451979,79.7753782 95.8566287,74.6732541 92.1781892,71.464371 C94.3475253,74.7053429 88.279672,77.4970712 85.3872239,75.5717414 Z M47.3452422,54.8744456 C49.6088973,58.5325723 53.5702938,60.6504351 58.8835953,61.0996787 C60.8957332,61.2601229 62.1533194,61.0675899 63.4737849,61.805633 C64.0711383,61.8377218 63.91394,61.0996787 64.5741727,61.2280341 C67.3408623,61.4526559 68.912845,60.4579021 70.6734657,59.6556814 C69.0700433,59.8161255 67.2151037,60.2332803 66.0832762,59.3668819 C65.9260779,60.3295468 66.8692675,60.1691026 67.1836641,60.6504351 C64.6999314,61.3884782 62.7821125,60.4579021 61.2101297,59.527326 C60.8014142,59.7519478 61.4930866,60.2011915 61.0843711,60.3937245 C54.7021213,59.7519478 47.1251646,57.8907957 47.4710008,50.8954306 C47.2509233,51.3125854 47.188044,51.8260067 46.9050871,52.1789838 C43.6982423,49.868588 38.8879752,44.3493091 38.2906218,38.5733196 C37.7561477,33.2465737 40.9315528,31.2249774 45.6475009,31.7704875 C46.3706129,32.0271982 46.3077336,32.6047971 46.6221302,33.0540407 C46.9050871,32.444353 47.3138026,31.9630205 47.4395612,31.2249774 C42.3463372,29.0750257 37.2216736,33.3428402 37.3159925,38.1561648 C37.4103115,45.4403294 43.2580872,50.1573875 46.7478888,53.462537 C46.4963716,54.2005801 46.5278112,54.6177349 46.4649319,55.2916004 C46.9050871,55.6766664 46.8736474,54.8423568 47.3452422,54.8744456 Z M70.7992243,59.6877702 C71.459457,59.6235925 72.0568105,59.4631484 72.0568105,58.6930164 C71.0507415,58.8213718 70.4848277,58.5004835 69.6988364,58.404217 C69.6673967,59.2706154 70.8306639,58.9497271 71.3651381,59.2706154 C71.3965777,59.6556814 70.5791467,59.1422601 70.7992243,59.6877702 Z M80.6712757,66.2018028 C80.7081329,66.2388399 80.7818472,66.2758769 80.8187043,66.2758769 C80.7818472,66.2758769 80.7081329,66.2388399 80.6712757,66.2018028 Z M98.4346804,58.2758616 C98.4346804,57.9228845 98.9691545,58.0833287 99.0005941,57.6982627 C98.8119562,57.5057297 98.3403614,57.5057297 98.1831631,57.6982627 C98.1202838,58.019151 98.1831631,58.2437728 98.4346804,58.2758616 Z M115.380654,75.9888962 C115.506413,76.5664951 115.978007,76.7911169 116.481042,76.9836499 C116.323844,76.4381398 115.695051,76.3739621 115.380654,75.9888962 Z M118.839016,59.2706154 C119.436369,59.4952372 119.687887,58.6609276 119.939404,58.9818159 C118.870456,59.8161255 117.801507,60.7467016 116.481042,61.3884782 C115.129137,62.0302548 113.525714,62.2227878 112.456766,63.2175416 C113.90299,63.1212751 115.380654,62.2869655 116.763999,61.5168335 C118.084464,60.7787904 119.593568,60.0728362 120.662516,59.2385266 C121.16555,58.8213718 121.417068,58.1475063 122.045861,57.9549733 C124.120878,57.3773744 125.7243,58.5967499 127.170524,59.3668819 C126.258774,58.211684 123.9008,56.9602196 121.888662,57.3773744 C121.448507,57.4736409 121.102671,58.019151 120.631076,58.2437728 C119.939404,58.5646611 118.650378,58.2437728 118.839016,59.2706154 Z M87.3364824,68.062955 C86.7705686,68.8009981 85.0728273,68.4801098 84.4125946,68.062955 C84.098198,68.4801098 84.8527497,68.7689093 84.6955515,69.4748635 C85.921698,69.4748635 87.7137583,69.2502417 87.3364824,68.062955 Z M118.996214,57.4094632 C118.524619,57.3773744 117.864387,57.5057297 117.612869,57.2811079 C117.801507,57.0885749 117.612869,56.7997754 117.895826,56.4467983 C117.895826,56.4467983 117.895826,56.4467983 117.895826,56.4467983 C117.990145,56.12591 117.958706,55.8371105 117.895826,55.6124887 C117.267033,54.4893796 116.66968,54.040136 115.537852,53.3341817 C114.060189,52.4356945 112.928361,51.9864508 110.413189,52.2110726 C105.288525,52.6282274 97.9945252,53.3983594 94.3160857,56.1900876 C91.8952323,58.019151 90.920603,60.7467016 89.6001375,62.5757649 C83.3436463,58.5646611 73.7859914,54.6819126 69.3215605,48.8417454 C67.0264658,45.8574842 65.0772072,41.332959 66.8063882,36.6479898 C67.277983,36.230835 67.4666209,35.5248807 67.9067761,35.0756371 C67.9696554,34.4338605 67.7181382,34.3696828 67.9067761,33.952528 C70.2018709,31.7704875 71.9310518,29.0108481 75.1378966,27.7272948 C76.0810862,28.6578709 77.9045861,28.3690715 79.1621723,27.4384954 C81.740224,25.5452544 84.8213101,19.8334425 83.280767,16.0148717 C83.0606894,15.3089174 82.3061377,13.4477652 80.3883188,12.1321231 C80.1682413,12.0037678 80.0424826,11.9075013 79.916724,11.8754125 C79.6023275,11.7149683 79.2250516,11.5545242 78.8792154,11.4261689 C79.099293,11.6507907 79.3822499,11.8754125 79.6337671,12.0679455 C79.6337671,12.0679455 79.6337671,12.0679455 79.6337671,12.0679455 C79.6337671,12.0679455 79.6652068,12.0679455 79.6966464,12.1000343 C79.7280861,12.1321231 79.7595257,12.164212 79.8224051,12.164212 C80.3568792,12.5492779 81.8974222,13.7365647 82.6205343,15.6618945 C83.0292498,17.3626025 83.1235688,19.6729983 82.1803791,20.7640186 C81.8345429,19.3200212 81.7716636,18.5819781 81.1743102,17.0096254 C80.6083964,15.4051839 79.9481637,14.4425189 79.2564913,13.5440317 C76.4583621,9.88590499 68.4412502,11.3619912 65.8003193,13.9611865 C69.3215605,12.6134556 73.9117501,11.0090141 77.3386724,12.9664327 C79.0678534,13.9611865 80.2625602,16.5924706 80.3883188,18.7745111 C80.6083964,22.6893484 77.7473879,24.8713889 74.9806983,26.2832975 C75.2636552,25.7377873 75.012138,25.1922772 74.9806983,24.5825894 C74.2575863,23.908724 72.465526,23.8766352 71.3651381,24.1654346 C68.5670088,24.8393001 66.6491899,27.9519167 65.8003193,30.1339571 C65.9575175,30.5832008 67.0264658,30.8720002 66.7749485,31.2570662 C66.4919917,31.0003556 65.7688796,31.1607997 65.2344055,31.1287109 C62.8764314,32.5406194 64.2912159,35.6211472 63.8510607,38.5091419 C63.7881814,38.9583856 63.4423452,39.2792739 63.4423452,39.632251 C63.4423452,40.3061165 64.0711383,40.9478931 63.8510607,41.4613144 C64.4169745,41.7822027 64.8885693,42.1993575 65.5173624,42.4560681 C66.7749485,46.1141948 68.1268537,49.3872555 70.5162674,51.6655625 C75.7981293,55.7087552 83.8152411,59.8161255 90.2289306,63.4421634 C91.4236375,64.1160288 92.649784,65.3354044 93.8444909,65.7204704 C95.5736718,66.2980693 96.2967839,65.2070491 97.3028528,64.7257166 C98.3718011,65.4316709 99.8809045,66.4264246 101.452887,66.1376252 C99.8180252,65.7204704 97.5229304,65.4316709 97.8373269,63.4421634 C97.0513356,63.4742522 96.5168615,64.5652724 95.6051115,64.5652724 C94.7562408,64.5652724 93.9073702,63.8272293 93.9388098,62.9929197 C94.0016891,61.0996787 96.7998183,61.6772777 97.6801287,60.5862574 C97.1456545,60.7146128 96.5797408,60.7787904 95.8880684,60.7146128 C95.5107925,60.4258133 95.7308701,59.5594149 95.4793529,59.1422601 C94.4418443,59.2385266 93.7187322,59.0459936 93.5300943,58.2758616 C93.8759305,57.2490191 94.5361632,56.5751536 95.6051115,56.2863541 C96.1710253,56.7035089 96.4854218,57.3773744 96.9884563,57.8587068 C97.4600511,57.6019962 96.9884563,57.1206637 97.1142149,56.4467983 C96.9884563,56.0938212 96.108146,56.5430648 96.2653442,55.8691993 C98.8748355,53.7513365 106.105956,52.7886716 111.104861,52.4677833 C114.374585,52.2752503 116.481042,54.2005801 117.361352,56.2863541 C114.154507,54.4572908 109.029844,54.6177349 105.005568,55.0028009 C102.961991,55.1953339 101.138491,55.0348897 99.7237062,55.8691993 C101.452887,55.7729328 105.068447,55.9654658 105.697241,55.9975547 C107.363542,56.0296435 108.369611,55.933377 109.721516,56.2863541 L109.847275,56.2863541 C110.664706,58.1475063 112.519645,58.9176383 113.462835,60.6825239 C111.387818,63.2817192 106.074516,63.3458969 105.822999,67.3570007 C107.457861,63.9555847 111.985171,63.506341 114.154507,60.6825239 C115.380654,59.7519478 116.984076,59.2064377 117.770068,57.8587068 L118.744697,57.8587068 C118.744697,57.8587068 118.744697,57.8587068 118.744697,57.8587068 C118.744697,58.0833287 119.562128,58.0833287 119.562128,57.8587068 C119.562128,57.8587068 119.562128,57.8587068 119.562128,57.8587068 L119.687887,57.8587068 C119.687887,57.8587068 119.687887,57.8587068 119.687887,57.8587068 C119.687887,57.8587068 119.687887,57.8587068 119.687887,57.8587068 C120.002283,57.8907957 120.190921,57.826618 120.222361,57.5699074 C120.096602,57.3131967 119.467809,57.4736409 118.996214,57.4094632 Z M113.431395,59.1422601 C112.268128,58.8855494 111.985171,57.6982627 111.19918,57.0243972 C112.613964,56.4788871 113.90299,57.6982627 113.431395,59.1422601 Z M90.3861289,62.5115873 L90.9520427,61.2280341 C91.5493961,60.2332803 92.4297064,59.527326 92.9013012,58.404217 C93.4357753,59.0459936 93.8759305,59.7840367 95.2592753,59.527326 C95.7623098,61.7735442 93.7816115,62.2548766 91.6437151,62.2227878 C91.6751547,63.3779857 92.8069823,62.9608309 93.7187322,62.9287421 C93.561534,63.6346964 94.0331288,63.7309629 94.0016891,64.3406506 C95.0706374,64.9824272 96.013827,64.7257166 96.925577,64.2122953 C95.102077,66.6831353 92.1467495,63.7951405 90.3861289,62.8003868 L90.3861289,62.5115873 Z M127.736438,60.2653691 C129.717136,62.1265213 128.113714,68.7689093 125.661421,67.9025108 L125.661421,67.7741555 C126.761809,63.2175416 122.926171,64.1160288 119.121973,63.9555847 C116.984076,63.8593182 114.374585,63.6026075 112.739723,63.8272293 C111.356378,64.0197623 108.998404,64.6294501 109.124163,65.9450922 C110.759025,66.3301581 112.393887,65.0466049 114.531783,64.9503384 C117.172714,64.8540719 120.631076,65.3674932 120.631076,65.3674932 C122.14018,65.6242039 123.649283,65.8488257 125.221266,66.0734475 C125.661421,66.2980693 125.095507,66.4264246 124.81255,66.4906023 C124.529593,66.55478 121.448507,66.1376252 118.4303,65.6883815 C116.701119,65.399582 113.93443,65.2070491 112.299568,65.784648 C111.19918,66.169714 110.696146,66.9719347 109.658637,66.7794018 C108.966965,66.6510464 108.746887,65.8809145 108.118094,65.784648 C107.332103,67.8062443 109.501439,68.3196656 110.633266,69.1860641 C112.928361,70.9509498 114.217387,74.4486323 116.606801,75.8605408 C118.933335,72.7158354 122.894731,71.2076604 125.75574,68.6405539 C125.944378,68.8651758 126.478852,68.7689093 126.856128,68.7689093 C128.616748,67.2607342 130.188731,61.3243006 127.736438,60.2653691 Z M99.6922665,72.8762796 C100.572577,73.0688126 100.383939,74.3523658 100.949853,74.8657871 C101.924482,73.3897009 104.345335,75.2508531 105.540042,74.8657871 C104.093818,74.4165435 102.804792,73.8068557 101.107051,73.5822339 C100.729775,73.3255232 100.949853,72.3949471 100.28962,72.4591248 C100.478258,73.0046349 99.6293872,72.4912136 99.6922665,72.8762796 Z M107.457861,74.8657871 C107.269223,74.3523658 106.60899,74.320277 106.200275,73.9993887 C106.357473,74.5769876 106.986266,74.6090764 107.457861,74.8657871 Z M106.891947,73.5822339 C106.923387,73.1650791 106.860508,72.8762796 106.60899,72.7158354 C106.514672,73.0688126 106.294594,73.6143227 106.891947,73.5822339 Z M104.282456,70.8867721 C105.319965,70.9188609 106.483232,71.5285487 106.923387,71.7531705 C106.734749,70.8225944 105.288525,70.4696173 104.282456,70.8867721 Z M32.631484,38.5733196 C34.9894581,37.1934999 32.2856478,34.337594 31.3738979,31.8988428 C29.8019152,27.6310284 29.3303203,21.5020617 30.5564669,17.5872244 C27.4753807,23.9729017 29.8647945,33.3107514 32.631484,38.5733196 Z M113.714352,79.6791117 C112.99124,79.1336016 112.393887,78.491825 111.482137,78.106759 C112.048051,78.7164468 112.896921,79.7753782 113.714352,79.6791117 Z M112.173809,75.4112972 C111.922292,76.020985 111.733654,76.7269393 112.299568,77.1120052 C112.14237,77.1761829 111.985171,77.2724494 111.890852,77.4008047 C112.425327,77.6254265 113.211318,78.7806244 113.682913,78.106759 C112.551085,77.7537819 112.582525,76.1814292 112.173809,75.4112972 Z M105.665801,75.5717414 C105.917318,76.0530738 106.514672,76.8232058 106.357473,77.2724494 C104.628292,77.52916 102.207439,77.6575154 101.484327,76.4381398 C100.28962,76.3418733 98.1831631,76.8232058 97.0513356,76.1493403 C96.6111804,76.5985839 95.9509477,76.7911169 95.6679908,77.4328935 C96.2653442,77.6896042 96.7683787,76.7911169 97.4600511,76.7269393 C98.8119562,77.1440941 100.541137,77.721693 101.484327,77.0157387 C102.490396,78.0746702 104.251016,77.5933377 105.225646,78.5880915 C105.162766,79.1977792 105.288525,79.614934 105.540042,79.9037335 C105.571482,79.9358223 105.602922,79.9679112 105.634361,80 C105.634361,79.9679112 105.634361,79.9358223 105.634361,79.9037335 C105.571482,78.6201803 106.074516,77.9463148 106.734749,77.4328935 C107.835137,78.3634696 109.469999,78.5560026 111.041982,78.7164468 C109.752956,77.9784037 108.086654,77.5933377 106.734749,76.8873834 C106.388913,76.5023175 106.074516,75.3792084 105.665801,75.5717414 Z M114.091628,79.8716447 L114.563223,79.8716447 C114.343145,79.614934 114.123068,79.3582234 113.871551,79.1015127 C113.90299,79.3582234 113.96587,79.614934 114.091628,79.8716447 Z M90.7948444,79.1015127 C88.373991,79.9358223 83.4379653,79.7753782 83.0292498,76.8232058 C82.8720515,75.6680079 83.5322843,73.3897009 84.286836,72.5874801 C84.5697928,72.2665918 86.1732152,71.1113939 87.2107238,70.7584168 C88.4368703,70.3091731 90.2603703,70.4696173 91.2349995,70.7584168 C89.5058186,65.9130033 84.192517,63.9555847 79.8538447,62.2548766 C83.4379653,64.5973613 88.0595945,65.8809145 90.1346117,69.763663 C87.1164048,69.8920183 85.1985859,71.1434827 83.5951636,72.7479243 C82.9978101,72.3628583 82.1489395,72.234503 81.645905,71.7531705 C81.4887067,73.1009014 82.557655,73.1650791 83.5951636,73.3255232 C81.9603015,75.3150307 82.5890946,78.6201803 84.0038791,79.9037335 L92.3982668,79.9037335 C93.561534,79.3903122 94.6933615,78.7164468 95.5422322,77.721693 C93.7187322,77.2082717 92.3668271,78.5880915 90.7948444,79.1015127 Z M75.6723707,75.2829419 C75.7981293,75.7642744 75.5151724,75.8926297 75.3894138,76.1493403 C73.3458363,77.4970712 70.2018709,78.5560026 67.0579054,77.5612489 C67.1522244,77.2403606 67.2151037,76.5664951 67.6238192,76.1493403 C70.4848277,75.6038302 72.1825691,73.8068557 75.829569,74.4486323 C75.7981293,74.0314775 75.8610086,73.742678 76.1125259,73.6143227 C78.4390603,72.3628583 81.2057498,71.5285487 83.1864481,69.9241072 C81.645905,70.2770843 80.2311206,70.2449955 79.0364137,69.6353077 C78.8792154,70.7584168 79.8852844,70.6621503 80.2939999,71.2076604 C78.1561034,72.1061477 75.012138,74.3523658 72.6541639,72.4912136 C72.5598449,73.0688126 72.8742415,73.2292567 72.7799225,73.7747669 C70.2018709,75.1866754 66.0518365,76.5664951 62.7821125,74.8978759 C62.8449918,74.3844546 63.1279487,74.127744 63.4737849,73.9031222 C66.9321468,73.742678 69.101483,71.0793051 72.6227242,71.9136147 C72.8428018,71.5606375 72.9056811,71.0793051 73.3143966,70.9188609 C75.4208535,70.4696173 76.552681,69.0256199 79.1307327,69.0897976 C78.9735344,68.2875768 79.7595257,68.5121986 79.8224051,67.9666885 C78.8792154,68.1913103 77.8417068,68.3196656 76.6155603,68.255488 C75.1378966,66.6189576 77.9045861,66.362247 78.4076206,65.4316709 C77.1500344,66.362247 75.3894138,66.3943358 73.4087156,66.2980693 C73.4715949,67.677889 72.0253708,67.5495337 71.459457,68.2875768 C72.8428018,67.9345997 74.3519052,67.0040236 76.0496465,67.4211784 C75.829569,68.0308662 76.1439655,68.8972646 76.6155603,69.2502417 C75.1378966,70.2449955 72.7170432,70.9830386 70.642026,70.533795 C70.2647502,70.4696173 70.736345,71.3039269 70.3590691,71.2397492 C67.0264658,72.2986806 62.9707504,74.5769876 58.820716,73.0688126 C58.6635178,73.5180562 59.2608712,73.1650791 59.1036729,73.6464115 C57.8460867,73.8710333 57.3430523,72.427036 58.1290436,71.8173482 C62.8764314,71.7531705 65.5802417,69.6032189 70.3590691,69.5390412 C70.5162674,69.0256199 71.3651381,68.5121986 71.2079398,68.1271327 C70.4533881,68.6726428 68.7242071,68.9614423 67.7495778,68.4159321 C67.9382158,68.8330869 67.8438968,68.9614423 67.6238192,69.2502417 C64.1340176,70.148729 60.4241384,71.4964599 55.9597075,70.9509498 C55.4252334,70.3091731 54.3877248,69.763663 53.727492,69.6673965 C53.7903713,69.2502417 53.821811,68.8009981 54.1362075,68.6726428 C59.5123884,69.0897976 62.9078711,67.5174449 67.7495778,67.3890895 C69.3844398,65.0466049 74.0689483,65.8167368 76.0810862,63.8593182 C74.2890259,64.1481177 72.8742415,65.1749602 70.9564226,64.5652724 C69.9817933,66.3301581 66.7120692,66.9719347 65.1400865,65.4316709 C64.6999314,66.0413587 65.7688796,66.2659805 65.4230434,66.7152241 C59.7639056,67.8062443 50.552087,69.8920183 48.7600267,63.6026075 C48.9486646,63.5705187 48.9801042,63.3779857 49.1687422,63.3138081 C53.5702938,65.8167368 59.6067074,64.9824272 65.1400865,64.7257166 C65.548802,64.6294501 65.3601641,63.9234958 65.8317589,63.8593182 C67.5923796,63.6667852 68.6613278,62.7682979 70.8306639,62.9929197 C71.8681725,62.2869655 73.188638,61.9018995 74.5719828,61.5810112 C74.5405431,61.2280341 74.5405431,60.9071458 74.6977414,60.7467016 C73.5344742,60.7787904 72.465526,60.7467016 71.7738536,60.3295468 C71.8996122,61.2280341 73.2515173,60.8750569 73.7231121,61.4526559 C72.1511294,62.0302548 69.6988364,62.5757649 68.1582933,61.5810112 C67.6866985,61.998166 68.8814054,62.4794985 68.5670088,62.7041203 C67.277983,63.3458969 65.0143279,63.7309629 63.5681038,62.9929197 C63.2851469,63.1212751 63.5052245,63.7951405 63.1593883,63.8593182 C55.7396299,64.5331836 47.0308457,64.6936278 46.2134147,56.9281308 C45.5846216,56.7676866 46.2134147,57.8907957 45.8046992,57.9228845 C40.1141217,55.8050217 35.4296133,52.146895 32.7572427,46.8843268 C32.4742858,46.3067278 32.2542082,45.4724182 32.0655703,44.6060198 C31.8769323,43.803799 31.8769323,42.5523346 31.3738979,42.488157 C30.9651824,45.69704 31.814053,48.4566795 33.6061133,50.5745423 C33.9519495,50.9916971 35.0837771,52.2110726 35.272415,52.4036056 C38.1334235,55.4520445 42.5664148,57.5057297 45.8361388,59.3347931 C45.458863,61.0355011 46.5906905,61.8377218 46.5278112,62.7362091 C40.9315528,62.0944325 34.2349064,59.8161255 30.5564669,56.3505318 C29.1102428,54.9707121 28.544329,53.0132934 28.3242514,50.6708088 C28.2928118,50.8312529 28.2928118,50.9916971 28.0412945,50.9596082 C27.5696997,50.5745423 26.3749928,49.7723215 26.092036,49.5476997 C23.7969412,47.6544587 21.2503292,44.5739309 19.3010706,41.1725149 C16.8487776,36.9367892 12.6987432,28.2086273 18.2006827,25.0318331 C18.3893207,32.3159976 21.4389671,38.3486978 24.4571739,43.1620224 C25.6833204,45.1194411 26.9409066,47.3335704 29.0473635,48.1357911 C29.0788031,47.6865475 29.36176,47.5261034 29.3303203,47.0126821 C22.539355,40.4665606 14.8680794,23.0744144 22.0991999,11.8754125 C25.1174067,7.19044322 30.27351,4.30244846 37.0959149,5.48973519 C38.3535011,5.61809051 37.7875873,5.90688999 37.5046304,6.48448894 C36.3728029,8.53817411 35.272415,10.6560369 34.7379409,13.287321 C33.9519495,13.9611865 32.8515616,14.3141636 32.3799668,15.2768285 C33.1973978,15.0842956 33.7947512,14.0253641 34.7379409,14.4104301 C33.8261909,20.2505973 34.1091478,27.3743177 35.3038546,32.5406194 C35.5868115,33.7920838 35.4924926,35.4286142 36.5614408,36.0703908 C36.7815184,35.845769 37.0330356,35.9741243 37.1273546,35.7815913 C35.5868115,30.358579 33.8890702,23.2669474 35.0523374,16.0790493 C36.3099236,8.28146346 42.4406562,1.63907551 50.0490525,0.772677084 C53.1615783,0.419699946 56.4941816,1.38236487 58.3805609,3.30769471 C56.0854661,3.821116 54.1990868,6.35613362 51.8411128,7.12626556 C50.457768,7.57550919 49.0429836,7.51133152 47.9425957,8.24937463 C46.9679664,8.92324007 46.5278112,9.91799382 45.8675785,11.0731917 C47.6281991,9.43666136 49.4831387,7.06208789 52.6585438,8.08893048 C54.3562851,6.48448894 56.3055437,5.04049156 58.2862419,3.72484951 L58.3491212,3.69276067 C58.7892764,3.43605003 59.4495091,3.4039612 59.6067074,2.82636225 C57.1229747,1.09356539 54.2934058,-0.0616325135 50.8664835,0.00254514783 C45.8675785,0.0988116398 42.1576993,2.12040797 39.6110873,4.2382708 C39.548208,4.30244846 39.5167683,4.33453729 39.5167683,4.33453729 C37.4731908,3.69276067 35.6811305,3.01889523 33.3860357,3.37187237 C26.8465877,4.43080378 21.5018464,10.1747045 19.3639499,15.565628 C9.14606232,16.9775366 3.20396766,28.5295156 6.72520894,39.6643399 C4.05283833,42.103091 1.22326945,44.0284208 0.342959128,48.0395247 C0.217200511,48.6171236 0.185760856,48.9380119 0.122881548,49.3551667 C-0.977506351,58.0833287 5.56194173,65.1428714 9.7748554,69.7315742 C10.1835709,69.4106859 10.4665278,68.9293534 11.0324416,68.7368204 C12.5101053,70.0203737 13.7362518,71.5606375 15.4654328,72.5553913 C15.6226311,73.1329902 15.9684673,73.7105892 16.3143035,73.9672998 C20.7158551,77.3045382 31.4682168,77.9463148 39.0766132,77.2403606 C39.6110873,78.5880915 41.4031476,79.2940457 42.723613,79.8395558 L46.6850095,79.8395558 C46.5592509,79.7753782 46.3706129,79.7112005 46.3077336,79.614934 C45.9618974,78.7806244 45.2073457,78.9731574 45.2073457,78.106759 C49.640337,77.3366271 54.0418886,76.5344063 57.9718454,75.2829419 C59.0093539,76.5023175 61.6817246,75.3471196 62.6877935,76.1493403 C62.8764314,77.1440941 61.5245263,77.2724494 60.7385349,77.5612489 C58.9779143,78.2351143 56.8085782,79.1977792 54.5134834,79.8716447 L57.1544143,79.8716447 C58.1919229,79.5828452 59.1979919,79.2298681 60.2040608,78.8448021 C61.0214918,78.5239138 61.8074832,77.7858707 62.7192331,77.721693 C63.9768193,77.5933377 65.4544831,78.491825 66.8692675,77.8500483 C66.9950261,78.491825 67.372302,78.8768909 67.4351813,79.5507564 C67.2465434,79.6470229 67.0264658,79.7753782 66.8378279,79.8716447 L70.9564226,79.8716447 C70.5791467,79.614934 70.2647502,79.2940457 70.0761122,78.8448021 C72.1825691,78.4276473 74.006069,77.7537819 75.4837328,76.7269393 C78.2504223,78.106759 79.8852844,75.3792084 81.4572671,74.1919216 C79.6023275,74.7695206 77.7788275,77.1440941 75.6723707,75.2829419 Z M51.0865611,69.6032189 C51.9983111,69.956196 53.1301386,69.6673965 53.5702938,70.4696173 C53.00438,71.5285487 51.6524749,71.2397492 50.6464059,71.464371 C45.6789405,72.5233025 39.0451735,73.6464115 35.5239322,70.341262 C34.6436219,69.5069524 34.0777081,68.255488 33.7318719,66.9398459 C33.7947512,66.8114906 33.8890702,66.7152241 33.8576306,66.5226911 C36.7815184,67.7099779 39.9569235,68.4801098 43.5724837,68.6405539 C45.3016647,68.7047316 47.3766819,68.255488 49.2630611,68.6405539 C49.9547335,68.7689093 50.3948887,69.3465082 51.0865611,69.6032189 Z M30.27351,57.5378185 C30.4307082,57.5378185 30.5879065,57.6019962 30.6822255,57.7303515 C33.2917168,60.3937245 37.3159925,61.998166 41.6546648,62.9608309 C43.1323286,63.2817192 45.0815871,63.2496304 46.3706129,63.8272293 C47.093725,64.1481177 47.5653198,64.9824272 48.3198715,65.2391379 C48.2569922,66.2980693 49.0744232,66.4264246 49.1373025,67.3570007 C42.0633803,67.9025108 30.3992686,67.3570007 30.1163117,57.9870622 C30.1477514,57.441552 30.2106307,57.5699074 30.27351,57.5378185 Z M18.7351569,16.7529148 C18.5779586,18.6461558 17.8862862,21.9192165 18.3264414,24.3900565 C11.1582002,28.7220486 16.0627862,39.6964287 19.4268293,44.6701974 C20.3700189,46.0500172 21.6276051,47.3656592 22.8851912,48.6492124 C24.5200532,50.2857428 26.1234756,51.8260067 28.2928118,52.339428 C28.1670531,53.2379152 27.6011394,53.6871589 27.4753807,54.4572908 C27.0037859,57.2490191 28.8901652,58.9818159 29.4246393,60.5541686 C22.0363206,58.3721281 16.6601397,52.9812046 12.4786657,47.0768597 C10.5922864,44.381398 7.9199158,40.7874489 7.19680375,36.7442563 C5.49906242,26.8288076 9.68053644,18.421534 18.7351569,16.7529148 Z M14.1449673,68.1913103 C10.4665278,66.55478 7.07104514,63.891407 4.71307107,60.6825239 C2.60661423,57.826618 0.248640165,54.0080472 0.971752213,48.7775678 C1.38046772,45.69704 3.32972628,41.6859362 7.22824341,42.3918905 C8.04567442,44.4455756 8.48582958,46.8843268 9.58621748,48.6171236 C9.71197609,48.6492124 9.71197609,48.5529459 9.71197609,48.4887683 C9.71197609,47.782814 10.2464502,47.6223699 10.4036485,47.0768597 C15.088157,53.6871589 20.7158551,59.3027042 29.2988807,61.9660772 C29.2045617,62.8645644 29.5189583,63.3458969 29.4246393,64.2443841 C28.7644066,64.3727395 25.5575618,63.2175416 24.5514929,62.8324756 C19.9613034,61.0675899 15.4025535,58.3721281 12.4786657,54.6177349 C11.2839588,53.1095599 10.8752433,51.1521412 9.83773471,49.2268114 C8.45438992,51.0879636 9.83773471,54.4572908 11.0953209,56.1579988 C14.6480018,60.9713234 22.8537516,64.469006 29.2988807,65.4958485 C29.8333548,67.6458002 31.2481393,68.8972646 33.0401995,69.7315742 C33.1345185,71.2718381 34.0148288,72.04197 34.4235443,73.2613456 C29.2988807,72.8121019 23.5768636,71.3360157 19.4268293,69.8599295 C17.6662086,69.2823306 15.7169501,68.8972646 14.1449673,68.1913103 Z M35.8068891,76.8232058 C31.1538203,77.0478276 27.1295445,76.1172515 22.7594326,74.9941424 C19.8984241,74.2560993 16.3143035,72.7800131 15.5283121,70.5979726 C15.6540707,70.5658838 15.6540707,70.4696173 15.811269,70.4696173 C19.7097861,71.9136147 24.268536,73.1971679 29.1416824,73.8710333 C32.9773202,74.3844546 36.2784839,74.6090764 39.1394925,76.1493403 C38.4163804,76.8873834 36.9701563,76.7911169 35.8068891,76.8232058 Z M46.6535698,76.9836499 C43.7925613,77.1440941 41.4660269,76.0851627 39.5796476,74.4165435 C39.9569235,72.9725461 41.5289062,73.6143227 42.5035355,73.5822339 C46.181975,73.4217897 50.4892076,72.6195689 53.4759748,71.7531705 C54.1362075,72.2024141 55.0793972,72.9083684 56.1169058,73.1650791 C56.7456988,73.3255232 57.5945695,72.8762796 57.908966,73.742678 C55.0479575,75.2187642 50.5835266,76.7590281 46.6535698,76.9836499 Z M99.5350683,79.1015127 C99.2206717,79.3582234 98.8433959,79.6470229 98.4032407,79.8716447 L99.3149907,79.8716447 C99.6922665,79.422401 99.9752234,78.8768909 100.069542,78.106759 C99.5350683,78.0425813 99.7237062,78.7806244 99.5350683,79.1015127 Z M46.9050871,21.5662394 C46.5592509,24.101257 45.6789405,27.5347619 46.3391733,30.1981348 C47.4395612,29.4280029 47.0308457,27.4384954 47.0308457,25.9624092 C47.0308457,24.6146783 47.0622853,23.4915692 47.1251646,22.4326378 C47.2194836,20.9886404 47.8482767,17.2984249 48.5713887,15.1805621 C49.4516991,12.5813668 51.275199,10.3672375 52.186949,8.2172858 C49.0744232,11.8112348 47.5024405,17.2021584 46.9050871,21.5662394 C46.9365267,21.5662394 46.9365267,21.5662394 46.9050871,21.5662394 Z M61.367328,29.0750257 C59.7639056,28.8504039 58.1290436,29.2996475 57.2172937,29.9414242 C54.7021213,33.0219519 53.821811,40.2419388 55.8339489,44.6701974 C56.0540264,42.7127788 55.1737161,40.3061165 55.2680351,37.8673653 C55.4252334,33.6316397 57.2487333,29.9093353 61.8074832,30.358579 C62.8764314,30.4548455 63.4737849,31.1287109 64.2912159,31.6421322 C64.9514486,30.2302236 62.9078711,29.2675587 61.367328,29.0750257 Z M61.8389228,43.5470884 C61.5874056,43.5149995 61.5874056,43.6433549 61.7446039,43.7396213 C65.2344055,44.7022863 66.2090348,49.5797885 66.2090348,49.5797885 C66.2090348,49.5797885 66.3033537,49.7723215 66.3347934,49.6118774 C66.366233,49.5156109 66.2719141,48.9380119 66.2719141,48.9380119 C66.2719141,48.9380119 65.4230434,42.8411341 61.8389228,43.5470884 Z M77.8731465,78.5239138 C77.9360258,79.0373351 77.7473879,79.2619569 77.464431,79.3903122 C77.0871551,79.5507564 76.6155603,79.7112005 76.1125259,79.8716447 L79.9796033,79.8716447 C80.1682413,79.7112005 80.2939999,79.4544899 80.3568792,79.1015127 C79.2564913,79.1977792 78.7534568,78.6843579 77.8731465,78.5239138 Z M59.7010263,44.381398 C58.8521557,43.7717102 58.2233626,45.7933065 57.6260092,46.3709055 C57.4059316,45.9537507 57.185854,45.4724182 56.6513799,45.3761517 C56.8085782,46.1141948 57.4059316,46.3709055 57.6260092,47.0768597 C57.9404057,49.1305449 58.4748798,50.6708088 59.5752677,51.8901843 C60.2040608,52.5961386 61.1158108,53.5588035 61.9332418,53.462537 C60.5813367,51.5372072 58.7892764,50.061121 58.0347247,47.5261034 C58.3176816,46.1783725 58.7892764,45.0552634 59.7010263,44.381398 Z M62.4677159,51.4730295 C61.9332418,53.2058264 63.4109055,54.1043137 64.5427331,54.5856461 C63.6624228,53.7513365 62.6877935,52.9812046 62.4677159,51.4730295 Z M61.4930866,58.2758616 C61.8703625,58.2437728 61.6817246,57.6019962 62.184759,57.6982627 C65.0457676,57.5057297 66.4291123,58.404217 68.8499657,57.4094632 C66.554871,58.0512398 65.0457676,56.1900876 63.7253021,55.5803999 C63.8825004,56.4467983 64.5741727,56.7997754 65.1086469,57.2811079 C62.8449918,57.7303515 60.9586125,56.6393313 59.9839832,55.2916004 C59.4495091,55.9975547 60.5813367,56.5751536 60.2669401,56.9923084 C56.1797851,55.2595116 50.8979232,51.9222732 52.7843024,46.3709055 C49.2945008,52.3715168 56.6199402,57.1206637 61.4930866,58.2758616 Z M10.2464502,72.1703253 C10.0578123,71.656904 10.4350881,70.9188609 9.68053644,70.5979726 C9.39757955,71.9777923 9.58621748,73.1971679 9.96349333,74.127744 C10.7809243,76.213518 12.0699502,78.1388478 13.5790536,79.8395558 L20.4014585,79.8395558 C17.6976483,79.0694239 15.3082345,77.9784037 13.9877691,76.5344063 C12.5729846,75.3471196 10.9381226,74.127744 10.2464502,72.1703253 Z M73.8488708,9.66128318 C72.1196898,10.0142603 70.5477071,10.5276816 68.8499657,10.9448364 C68.3154916,10.6881258 67.372302,10.1105268 66.7749485,10.3672375 C67.277983,10.6560369 68.0639744,10.6560369 68.3154916,11.2015471 C66.0203968,12.6134556 63.0336297,13.8970088 61.0843711,16.3036711 C58.7892764,19.1916659 56.4313023,23.2027697 56.0854661,27.0855182 C56.0225868,27.7272948 55.7710696,29.1392034 56.6513799,29.2033811 C56.9343368,25.1922772 57.8775264,22.5930819 59.4180695,19.8655313 C62.5305952,14.3462525 67.5609399,10.5597704 75.6723707,10.6560369 C76.3011638,10.6560369 77.8731465,11.2336359 77.2129138,9.95008265 C77.2129138,9.95008265 76.2382845,8.76279592 74.8549397,7.25462088 C72.8428018,4.94422507 69.7617157,3.17933938 65.548802,2.85845108 C64.0711383,2.73009575 62.279078,2.66591809 61.2415694,3.56440535 C67.5295002,2.89053991 72.1825691,5.13675805 73.8488708,9.66128318 Z M70.6734657,54.8744456 C69.8874743,53.9759583 69.2901209,52.8849381 68.5984485,51.8901843 C67.8753364,52.7244939 68.7242071,53.2700041 69.1643623,53.5908924 C69.9817933,54.2005801 69.918914,55.355778 70.6734657,54.8744456 Z M70.9564226,55.2916004 C70.2018709,56.6714201 68.3783709,56.2863541 67.4980606,55.2916004 C67.6866985,56.9923084 70.0761122,57.2490191 70.9564226,55.9975547 C71.3651381,56.2221765 71.553776,56.7035089 72.0568105,56.8639531 C71.9624915,55.9975547 70.9564226,55.8371105 70.9564226,55.2916004 Z"/>
    <g transform="translate(153 30)">
      <path d="M5.98295455 26.5534884C6.05681818 29.9302326 6.42613636 31.0046512 7.53409091 31.3883721 8.27272727 31.6186047 9.15909091 31.6186047 9.52840909 31.6186047 9.75 31.6186047 9.82386364 31.6953488 9.82386364 31.8488372 9.82386364 32.0790698 9.60227273 32.155814 9.08522727 32.155814 6.79545455 32.155814 5.24431818 32.0023256 4.875 32.0023256 4.50568182 32.0023256 2.80681818 32.155814 1.03409091 32.155814.664772727 32.155814.369318182 32.0790698.369318182 31.8488372.369318182 31.6953488.517045455 31.6186047.664772727 31.6186047.960227273 31.6186047 1.69886364 31.5418605 2.28977273 31.3883721 3.32386364 31.0813953 3.47159091 29.9302326 3.47159091 26.0930233L3.54545455 2.30232558C3.54545455.690697674 3.69318182.230232558 3.98863636.230232558 4.28409091.230232558 5.02272727 1.15116279 5.39204545 1.53488372 5.98295455 2.2255814 11.9659091 8.90232558 18.0965909 15.8093023 22.0852273 20.1837209 26.4431818 25.2488372 27.6988636 26.6302326L27.2556818 5.5255814C27.1818182 2.83953488 26.9602273 1.91860465 25.7045455 1.61162791 24.9659091 1.45813953 24.0795455 1.38139535 23.7102273 1.38139535 23.4147727 1.38139535 23.4147727 1.22790698 23.4147727 1.0744186 23.4147727.844186047 23.7102273.76744186 24.2272727.76744186 26 .76744186 27.9204545.920930233 28.3636364.920930233 28.8068182.920930233 30.1363636.76744186 31.7613636.76744186 32.2045455.76744186 32.5.844186047 32.5 1.0744186 32.5 1.22790698 32.3522727 1.38139535 32.0568182 1.38139535 31.8352273 1.38139535 31.6136364 1.38139535 31.0965909 1.53488372 29.7670455 1.84186047 29.6193182 2.7627907 29.6193182 5.21860465L29.5454545 29.5465116C29.5454545 32.3093023 29.4715909 32.4627907 29.1761364 32.4627907 28.8806818 32.4627907 28.3636364 32.0023256 26.2954545 29.7767442 25.8522727 29.3930233 20.0909091 23.2534884 15.8806818 18.4953488 11.2272727 13.2767442 6.72159091 8.05813953 5.46590909 6.6L5.98295455 26.5534884zM52.7386364 1.84186047C53.1818182.460465116 53.4034091.230232558 53.625.230232558 53.8465909.230232558 53.9943182.460465116 54.5113636 1.68837209 55.1022727 3.3 61.3806818 20.4139535 63.8181818 26.7069767 65.2215909 30.3906977 66.4034091 31.0813953 67.2897727 31.3116279 67.8806818 31.5418605 68.4715909 31.5418605 68.9147727 31.5418605 69.1363636 31.5418605 69.2840909 31.6186047 69.2840909 31.772093 69.2840909 32.0023256 68.9147727 32.0790698 68.4715909 32.0790698 67.8806818 32.0790698 64.9261364 32.0790698 62.1931818 32.0023256 61.4545455 31.9255814 61.0113636 31.9255814 61.0113636 31.6953488 61.0113636 31.5418605 61.1590909 31.4651163 61.3068182 31.3883721 61.5284091 31.3116279 61.75 30.927907 61.5284091 30.2372093L57.8352273 20.0302326C57.7613636 19.8767442 57.6875 19.8 57.4659091 19.8L48.8977273 19.8C48.6761364 19.8 48.6022727 19.9534884 48.5284091 20.1069767L46.1647727 27.4744186C45.7954545 28.5488372 45.5738636 29.5465116 45.5738636 30.2372093 45.5738636 31.0813953 46.3863636 31.4651163 47.125 31.4651163L47.4943182 31.4651163C47.7897727 31.4651163 47.8636364 31.5418605 47.8636364 31.6953488 47.8636364 31.9255814 47.6420455 32.0023256 47.2727273 32.0023256 46.3125 32.0023256 44.6136364 31.8488372 44.1704545 31.8488372 43.7272727 31.8488372 41.5113636 32.0023256 39.6647727 32.0023256 39.1477273 32.0023256 38.9261364 31.9255814 38.9261364 31.6953488 38.9261364 31.5418605 39.0738636 31.4651163 39.2954545 31.4651163 39.5909091 31.4651163 40.1079545 31.3883721 40.4772727 31.3883721 42.3238636 31.1581395 43.1363636 29.5465116 43.8011364 27.4744186L52.7386364 1.84186047zM56.9488636 18.4953488C57.1704545 18.4953488 57.1704545 18.3418605 57.0965909 18.1883721L53.3295455 6.98372093C53.1079545 6.36976744 52.9602273 6.36976744 52.7386364 6.98372093L49.1931818 18.1883721C49.1193182 18.4186047 49.1931818 18.4953488 49.3409091 18.4953488L56.9488636 18.4953488zM86.0511364 20.1837209C86.0511364 24.1744186 86.0511364 27.4744186 86.2727273 29.1627907 86.4204545 30.3906977 86.6420455 31.3116279 87.8238636 31.4651163 88.4147727 31.5418605 89.2272727 31.6186047 89.5965909 31.6186047 89.8181818 31.6186047 89.8920455 31.772093 89.8920455 31.8488372 89.8920455 32.0790698 89.6704545 32.155814 89.2272727 32.155814 87.0113636 32.155814 84.5 32.0023256 84.2784091 32.0023256 84.0568182 32.0023256 81.5454545 32.155814 80.3636364 32.155814 79.9204545 32.155814 79.6988636 32.0790698 79.6988636 31.8488372 79.6988636 31.6953488 79.7727273 31.6186047 79.9943182 31.6186047 80.3636364 31.6186047 80.8068182 31.5418605 81.1761364 31.4651163 81.9886364 31.3116279 82.2102273 30.3906977 82.3579545 29.1627907 82.5795455 27.3976744 82.5795455 24.1744186 82.5795455 20.1837209L82.5795455 2.60930233 76.6704545 2.68604651C74.1590909 2.7627907 73.1988636 2.99302326 72.6079545 3.99069767 72.1647727 4.68139535 72.0170455 4.98837209 71.9431818 5.29534884 71.7954545 5.60232558 71.7215909 5.67906977 71.5738636 5.67906977 71.4261364 5.67906977 71.3522727 5.5255814 71.3522727 5.29534884 71.3522727 4.91162791 72.1647727 1.30465116 72.2386364.997674419 72.3125.76744186 72.4602273.230232558 72.6079545.230232558 72.9034091.230232558 73.2727273.613953488 74.3806818.690697674 75.5625.844186047 77.0397727.920930233 77.5568182.920930233L92.5511364.920930233C95.1363636.920930233 96.1704545.537209302 96.5397727.537209302 96.7613636.537209302 96.7613636.76744186 96.7613636 1.0744186 96.7613636 2.30232558 96.6136364 5.21860465 96.6136364 5.60232558 96.6136364 5.98604651 96.4659091 6.13953488 96.3181818 6.13953488 96.0965909 6.13953488 96.0227273 5.98604651 96.0227273 5.44883721L95.9488636 4.98837209C95.8011364 3.76046512 94.8409091 2.7627907 91 2.68604651L85.9772727 2.60930233 85.9772727 20.1837209 86.0511364 20.1837209zM112.494318 20.1837209C112.494318 24.1744186 112.494318 27.4744186 112.715909 29.1627907 112.863636 30.3906977 113.085227 31.3116279 114.267045 31.4651163 114.857955 31.5418605 115.670455 31.6186047 116.039773 31.6186047 116.261364 31.6186047 116.335227 31.772093 116.335227 31.8488372 116.335227 32.0790698 116.113636 32.155814 115.670455 32.155814 113.454545 32.155814 110.943182 32.0023256 110.721591 32.0023256 110.5 32.0023256 107.988636 32.155814 106.806818 32.155814 106.363636 32.155814 106.142045 32.0790698 106.142045 31.8488372 106.142045 31.6953488 106.215909 31.6186047 106.4375 31.6186047 106.806818 31.6186047 107.25 31.5418605 107.619318 31.4651163 108.431818 31.3116279 108.653409 30.3906977 108.801136 29.1627907 109.022727 27.3976744 109.022727 24.1744186 109.022727 20.1837209L109.022727 12.8930233C109.022727 6.44651163 109.022727 5.21860465 108.948864 3.91395349 108.875 2.53255814 108.505682 1.76511628 107.619318 1.61162791 107.176136 1.45813953 106.659091 1.45813953 106.363636 1.45813953 106.215909 1.45813953 106.068182 1.38139535 106.068182 1.22790698 106.068182.997674419 106.289773.920930233 106.732955.920930233 108.0625.920930233 110.573864 1.0744186 110.795455 1.0744186 111.017045 1.0744186 113.528409.920930233 114.710227.920930233 115.153409.920930233 115.375.997674419 115.375 1.22790698 115.375 1.38139535 115.227273 1.45813953 115.079545 1.45813953 114.784091 1.45813953 114.5625 1.53488372 114.045455 1.61162791 112.9375 1.84186047 112.642045 2.53255814 112.568182 3.99069767 112.494318 5.29534884 112.494318 6.44651163 112.494318 12.9697674L112.494318 20.1837209zM140.193182.230232558C149.204545.230232558 155.926136 6.13953488 155.926136 15.8093023 155.926136 25.0953488 149.647727 32.7697674 139.971591 32.7697674 129.039773 32.7697674 124.460227 23.944186 124.460227 16.4232558 124.460227 9.74651163 129.1875.230232558 140.193182.230232558zM141.005682 31.2348837C144.625 31.2348837 152.011364 29.0860465 152.011364 16.9604651 152.011364 6.98372093 146.176136 1.61162791 139.897727 1.61162791 133.25 1.61162791 128.227273 6.21627907 128.227273 15.272093 128.227273 25.0186047 133.840909 31.2348837 141.005682 31.2348837zM169.8125 26.5534884C169.886364 29.9302326 170.255682 31.0046512 171.363636 31.3883721 172.102273 31.6186047 172.988636 31.6186047 173.357955 31.6186047 173.579545 31.6186047 173.653409 31.6953488 173.653409 31.8488372 173.653409 32.0790698 173.431818 32.155814 172.914773 32.155814 170.625 32.155814 169.073864 32.0023256 168.704545 32.0023256 168.335227 32.0023256 166.636364 32.155814 164.863636 32.155814 164.494318 32.155814 164.198864 32.0790698 164.198864 31.8488372 164.198864 31.6953488 164.346591 31.6186047 164.494318 31.6186047 164.789773 31.6186047 165.528409 31.5418605 166.119318 31.3883721 167.153409 31.0813953 167.301136 29.9302326 167.301136 26.0930233L167.375 2.30232558C167.375.690697674 167.522727.230232558 167.818182.230232558 168.113636.230232558 168.852273 1.15116279 169.221591 1.53488372 169.8125 2.2255814 175.795455 8.90232558 181.926136 15.8093023 185.914773 20.1837209 190.272727 25.2488372 191.528409 26.6302326L191.085227 5.5255814C191.011364 2.83953488 190.789773 1.91860465 189.534091 1.61162791 188.795455 1.45813953 187.909091 1.38139535 187.613636 1.38139535 187.318182 1.38139535 187.318182 1.22790698 187.318182 1.0744186 187.318182.844186047 187.613636.76744186 188.130682.76744186 189.903409.76744186 191.823864.920930233 192.267045.920930233 192.710227.920930233 194.039773.76744186 195.664773.76744186 196.107955.76744186 196.403409.844186047 196.403409 1.0744186 196.403409 1.22790698 196.255682 1.38139535 195.960227 1.38139535 195.738636 1.38139535 195.443182 1.38139535 195 1.53488372 193.670455 1.84186047 193.522727 2.7627907 193.522727 5.21860465L193.448864 29.5465116C193.448864 32.3093023 193.375 32.4627907 193.079545 32.4627907 192.784091 32.4627907 192.267045 32.0023256 190.198864 29.7767442 189.755682 29.3930233 183.994318 23.2534884 179.784091 18.4953488 175.130682 13.2767442 170.625 8.05813953 169.369318 6.6L169.8125 26.5534884zM216.642045 1.84186047C217.085227.460465116 217.306818.230232558 217.528409.230232558 217.75.230232558 217.897727.460465116 218.414773 1.68837209 219.005682 3.3 225.284091 20.4139535 227.721591 26.7069767 229.125 30.3906977 230.306818 31.0813953 231.193182 31.3116279 231.784091 31.5418605 232.375 31.5418605 232.818182 31.5418605 233.039773 31.5418605 233.1875 31.6186047 233.1875 31.772093 233.1875 32.0023256 232.818182 32.0790698 232.375 32.0790698 231.784091 32.0790698 228.829545 32.0790698 226.096591 32.0023256 225.357955 31.9255814 224.914773 31.9255814 224.914773 31.6953488 224.914773 31.5418605 225.0625 31.4651163 225.210227 31.3883721 225.431818 31.3116279 225.653409 30.927907 225.431818 30.2372093L221.738636 20.0302326C221.664773 19.8767442 221.590909 19.8 221.369318 19.8L212.727273 19.8C212.505682 19.8 212.431818 19.9534884 212.357955 20.1069767L209.994318 27.4744186C209.625 28.5488372 209.403409 29.5465116 209.403409 30.2372093 209.403409 31.0813953 210.215909 31.4651163 210.954545 31.4651163L211.323864 31.4651163C211.619318 31.4651163 211.693182 31.5418605 211.693182 31.6953488 211.693182 31.9255814 211.471591 32.0023256 211.102273 32.0023256 210.142045 32.0023256 208.443182 31.8488372 208 31.8488372 207.556818 31.8488372 205.340909 32.0023256 203.494318 32.0023256 202.977273 32.0023256 202.755682 31.9255814 202.755682 31.6953488 202.755682 31.5418605 202.903409 31.4651163 203.125 31.4651163 203.420455 31.4651163 203.9375 31.3883721 204.306818 31.3883721 206.153409 31.1581395 206.965909 29.5465116 207.630682 27.4744186L216.642045 1.84186047zM220.778409 18.4953488C221 18.4953488 221 18.3418605 220.926136 18.1883721L217.159091 6.98372093C216.9375 6.36976744 216.789773 6.36976744 216.568182 6.98372093L213.022727 18.1883721C212.948864 18.4186047 213.022727 18.4953488 213.170455 18.4953488L220.778409 18.4953488zM247.590909 20.2604651C247.590909 26.4 247.738636 29.0093023 248.477273 29.7767442 249.142045 30.4674419 250.176136 30.6976744 253.278409 30.6976744 255.420455 30.6976744 257.119318 30.6209302 258.079545 29.4697674 258.596591 28.7790698 258.965909 27.7813953 259.113636 27.0139535 259.1875 26.7069767 259.261364 26.4767442 259.482955 26.4767442 259.704545 26.4767442 259.704545 26.6302326 259.704545 27.0906977 259.704545 27.5511628 259.409091 30.0069767 259.113636 31.2348837 258.818182 32.155814 258.744318 32.3860465 256.602273 32.3860465 250.840909 32.3860465 248.181818 32.155814 245.892045 32.155814 245.522727 32.155814 243.159091 32.3093023 241.977273 32.3093023 241.534091 32.3093023 241.3125 32.2325581 241.3125 32.0023256 241.3125 31.8488372 241.386364 31.772093 241.607955 31.772093 241.977273 31.772093 242.420455 31.6953488 242.789773 31.6186047 243.602273 31.4651163 243.823864 30.544186 243.971591 29.3162791 244.193182 27.5511628 244.193182 24.327907 244.193182 20.3372093L244.193182 13.0465116C244.193182 6.6 244.193182 5.37209302 244.119318 4.06744186 244.045455 2.68604651 243.75 1.99534884 242.420455 1.68837209 242.125 1.61162791 241.386364 1.53488372 241.090909 1.53488372 240.943182 1.53488372 240.795455 1.45813953 240.795455 1.30465116 240.795455 1.0744186 241.017045.997674419 241.460227.997674419 243.232955.997674419 245.744318 1.15116279 245.965909 1.15116279 246.1875 1.15116279 249.068182.997674419 250.25.997674419 250.693182.997674419 250.914773 1.0744186 250.914773 1.30465116 250.914773 1.45813953 250.767045 1.53488372 250.619318 1.53488372 250.323864 1.53488372 249.806818 1.61162791 249.289773 1.68837209 248.107955 1.91860465 247.8125 2.60930233 247.738636 4.06744186 247.664773 5.37209302 247.664773 6.52325581 247.664773 13.0465116L247.664773 20.2604651 247.590909 20.2604651z"/>
    </g>
    <path d="M447.075 31.6351351C447.6 30.222973 447.75 30 448.05 30 448.275 30 448.5 30.222973 449.025 31.5608108 449.7 33.1959459 456.45 50.8851351 459.075 57.3513514 460.65 61.1418919 461.85 61.8108108 462.825 62.1081081 463.5 62.3310811 464.1 62.3310811 464.55 62.3310811 464.775 62.3310811 465 62.4054054 465 62.5540541 465 62.777027 464.625 62.9256757 464.1 62.9256757 463.425 62.9256757 460.275 62.9256757 457.35 62.8513514 456.525 62.777027 456.075 62.777027 456.075 62.5540541 456.075 62.4054054 456.225 62.3310811 456.375 62.2567568 456.6 62.1824324 456.9 61.8108108 456.6 61.0675676L452.55 50.5135135C452.475 50.3648649 452.4 50.2905405 452.175 50.2905405L442.875 50.2905405C442.65 50.2905405 442.5 50.4391892 442.425 50.6621622L439.8 58.2432432C439.425 59.2837838 439.2 60.3243243 439.2 61.1418919 439.2 62.0337838 440.1 62.4054054 440.85 62.4054054L441.3 62.4054054C441.6 62.4054054 441.75 62.4797297 441.75 62.6283784 441.75 62.8513514 441.525 63 441.075 63 440.025 63 438.15 62.8513514 437.7 62.8513514 437.25 62.8513514 434.85 63 432.825 63 432.225 63 432 62.9256757 432 62.6283784 432 62.4797297 432.15 62.4054054 432.375 62.4054054 432.675 62.4054054 433.275 62.3310811 433.65 62.3310811 435.675 62.1081081 436.5 60.472973 437.25 58.3175676L447.075 31.6351351zM451.575 48.7297297C451.8 48.7297297 451.8 48.5810811 451.725 48.4324324L447.6 36.8378378C447.375 36.1689189 447.15 36.1689189 446.925 36.8378378L443.1 48.4324324C443.025 48.6554054 443.1 48.7297297 443.25 48.7297297L451.575 48.7297297zM475.87788 42.6399083C475.87788 35.8279817 475.87788 34.6169725 475.801843 33.2545872 475.725806 31.7408257 475.345622 31.059633 473.900922 30.7568807 473.520737 30.6811927 472.836406 30.6055046 472.380184 30.6055046 472.228111 30.6055046 472 30.5298165 472 30.3784404 472 30.1513761 472.228111 30 472.684332 30 474.66129 30 477.398618 30.1513761 477.626728 30.1513761 478.082949 30.1513761 481.428571 30 482.797235 30 485.534562 30 488.5 30.2270642 490.781106 31.8922018 491.845622 32.6490826 493.822581 34.8440367 493.822581 37.7958716 493.822581 41.0504587 492.453917 44.2293578 488.5 47.8623853 492.073733 52.4793578 495.039171 56.3394495 497.624424 59.0642202 499.981567 61.5619266 501.882488 62.016055 502.947005 62.1674312 503.78341 62.3188073 504.391705 62.3188073 504.619816 62.3188073 504.847926 62.3188073 505 62.4701835 505 62.5458716 505 62.7729358 504.771889 62.9243119 503.935484 62.9243119L500.817972 62.9243119C498.384793 62.9243119 497.24424 62.6972477 496.103687 62.0917431 494.202765 61.1077982 492.682028 58.9885321 490.172811 55.6582569 488.347926 53.2362385 486.294931 50.3600917 485.382488 49.2247706 485.230415 49.0733945 485.078341 48.9977064 484.774194 48.9977064L479.375576 48.9220183C479.147465 48.9220183 479.071429 49.0733945 479.071429 49.3004587L479.071429 50.3600917C479.071429 54.5229358 479.071429 58.0045872 479.299539 59.8211009 479.451613 61.1077982 479.679724 62.016055 480.97235 62.2431193 481.580645 62.3188073 482.569124 62.3944954 482.949309 62.3944954 483.177419 62.3944954 483.329493 62.5458716 483.329493 62.6215596 483.329493 62.8486239 483.101382 63 482.645161 63 480.211982 63 477.474654 62.8486239 477.246544 62.8486239 477.170507 62.8486239 474.43318 63 473.140553 63 472.684332 63 472.456221 62.9243119 472.456221 62.6215596 472.456221 62.4701835 472.532258 62.3944954 472.836406 62.3944954 473.21659 62.3944954 473.748848 62.3188073 474.129032 62.2431193 475.041475 62.0917431 475.193548 61.1077982 475.421659 59.8211009 475.64977 58.0045872 475.64977 54.5229358 475.64977 50.3600917L475.64977 42.6399083 475.87788 42.6399083zM479.375576 46.5C479.375576 46.7270642 479.451613 46.8784404 479.679724 47.0298165 480.364055 47.4082569 482.341014 47.7110092 484.317972 47.7110092 485.382488 47.7110092 486.599078 47.559633 487.587558 46.8784404 489.108295 45.8188073 490.248848 43.4724771 490.248848 40.1422018 490.248848 34.6926606 487.359447 31.4380734 482.645161 31.4380734 481.352535 31.4380734 480.135945 31.5894495 479.679724 31.6651376 479.451613 31.7408257 479.299539 31.8922018 479.299539 32.1949541L479.299539 46.5 479.375576 46.5zM510.357143 58.534427C506.071429 54.8761671 505 50.0472641 505 46.0231782 505 43.1697355 505.994898 38.2676673 509.97449 34.5362422 512.653061 31.9754603 516.632653 30 523.443878 30 525.204082 30 527.653061 30.1463304 529.872449 30.5121564 531.556122 30.8048172 532.933673 31.0243128 534.387755 31.1706432 534.846939 31.2438084 535 31.3901387 535 31.6096343 535 31.9754603 534.846939 32.4876167 534.770408 33.9509207 534.693878 35.3410594 534.693878 37.6823457 534.617347 38.2676673 534.540816 38.9261541 534.464286 39.1456497 534.234694 39.1456497 533.928571 39.1456497 533.852041 38.8529889 533.852041 38.2676673 533.852041 36.658033 533.163265 34.9020682 532.015306 33.9509207 530.484694 32.7071123 527.040816 31.5364691 523.214286 31.5364691 517.321429 31.5364691 514.642857 33.1461035 513.035714 34.6094074 509.821429 37.5360153 509.056122 41.3406056 509.056122 45.584187 509.056122 53.6323587 515.561224 61.0220437 524.97449 61.0220437 528.265306 61.0220437 530.867347 60.6562177 532.627551 58.900253 533.545918 57.9491054 534.158163 56.1199755 534.234694 55.3883235 534.311224 54.9493323 534.387755 54.7298367 534.693878 54.7298367 534.923469 54.7298367 535 55.0224975 535 55.3883235 535 55.6809843 534.464286 59.3392441 534.005102 60.8025481 533.77551 61.6073653 533.622449 61.6805305 532.857143 62.0463564 531.096939 62.7048432 527.729592 62.997504 524.897959 62.997504 518.316327 63.0706692 513.80102 61.5342001 510.357143 58.534427zM574.929515 50.3310345C574.929515 54.5034483 574.929515 57.9931034 575.147577 59.8137931 575.292952 61.1034483 575.511013 62.0137931 576.746696 62.2413793 577.328194 62.3172414 578.273128 62.3931034 578.636564 62.3931034 578.854626 62.3931034 579 62.5448276 579 62.6206897 579 62.8482759 578.781938 63 578.345815 63 576.019824 63 573.403084 62.8482759 573.185022 62.8482759 572.96696 62.8482759 570.35022 63 569.114537 63 568.678414 63 568.460352 62.9241379 568.460352 62.6206897 568.460352 62.4689655 568.53304 62.3931034 568.823789 62.3931034 569.187225 62.3931034 569.696035 62.3172414 570.059471 62.2413793 570.931718 62.0896552 571.077093 61.1034483 571.295154 59.8137931 571.513216 57.9931034 571.513216 54.5034483 571.513216 50.3310345L571.513216 45.7034483C571.513216 45.5517241 571.367841 45.4758621 571.295154 45.4758621L553.34141 45.4758621C553.196035 45.4758621 553.123348 45.5517241 553.123348 45.7034483L553.123348 50.3310345C553.123348 54.5034483 553.123348 57.9931034 553.34141 59.8137931 553.486784 61.1034483 553.704846 62.0137931 554.940529 62.2413793 555.522026 62.3172414 556.46696 62.3931034 556.830396 62.3931034 557.048458 62.3931034 557.193833 62.5448276 557.193833 62.6206897 557.193833 62.8482759 556.975771 63 556.539648 63 554.213656 63 551.596916 62.8482759 551.378855 62.8482759 551.160793 62.8482759 548.544053 63 547.30837 63 546.872247 63 546.654185 62.9241379 546.654185 62.6206897 546.654185 62.4689655 546.726872 62.3931034 547.017621 62.3931034 547.381057 62.3931034 547.889868 62.3172414 548.253304 62.2413793 549.125551 62.0896552 549.270925 61.1034483 549.488987 59.8137931 549.707048 57.9931034 549.707048 54.5034483 549.707048 50.3310345L549.707048 42.6689655C549.707048 35.8413793 549.707048 34.6275862 549.634361 33.262069 549.561674 31.7448276 549.198238 31.062069 547.817181 30.7586207 547.453744 30.6827586 546.799559 30.6068966 546.363436 30.6068966 546.218062 30.6068966 546 30.5310345 546 30.3793103 546 30.1517241 546.218062 30 546.654185 30 548.544053 30 551.160793 30.1517241 551.378855 30.1517241 551.596916 30.1517241 554.213656 30 555.449339 30 555.885463 30 556.103524 30.0758621 556.103524 30.3793103 556.103524 30.5310345 555.95815 30.6068966 555.740088 30.6068966 555.449339 30.6068966 555.231278 30.6827586 554.722467 30.7586207 553.559471 30.9862069 553.268722 31.7448276 553.196035 33.262069 553.123348 34.6275862 553.123348 35.9172414 553.123348 42.6689655L553.123348 43.5793103C553.123348 43.8068966 553.268722 43.8068966 553.34141 43.8068966L571.077093 43.8068966C571.222467 43.8068966 571.295154 43.7310345 571.295154 43.5793103L571.295154 42.6689655C571.295154 35.8413793 571.295154 34.6275862 571.222467 33.262069 571.14978 31.7448276 570.786344 31.062069 569.405286 30.7586207 569.04185 30.6827586 568.387665 30.6068966 567.951542 30.6068966 567.806167 30.6068966 567.588106 30.5310345 567.588106 30.3793103 567.588106 30.1517241 567.806167 30 568.242291 30 570.132159 30 572.748899 30.1517241 572.96696 30.1517241 573.185022 30.1517241 575.801762 30 577.037445 30 577.473568 30 577.69163 30.0758621 577.69163 30.3793103 577.69163 30.5310345 577.546256 30.6068966 577.328194 30.6068966 577.037445 30.6068966 576.746696 30.6827586 576.310573 30.7586207 575.147577 30.9862069 574.856828 31.7448276 574.784141 33.262069 574.711454 34.6275862 574.711454 35.9172414 574.711454 42.6689655L574.711454 50.3310345 574.929515 50.3310345zM592.190476 50.3018433C592.190476 54.483871 592.190476 57.9815668 592.394558 59.8064516 592.530612 61.0990783 592.734694 62.0115207 593.891156 62.2396313 594.435374 62.3156682 595.319728 62.3917051 595.659864 62.3917051 595.863946 62.3917051 596 62.5437788 596 62.6198157 596 62.8479263 595.795918 63 595.387755 63 593.210884 63 590.761905 62.8479263 590.557823 62.8479263 590.353741 62.8479263 587.904762 63 586.748299 63 586.340136 63 586.136054 62.9239631 586.136054 62.6198157 586.136054 62.4677419 586.204082 62.3917051 586.47619 62.3917051 586.816327 62.3917051 587.292517 62.3156682 587.632653 62.2396313 588.44898 62.0875576 588.585034 61.0990783 588.789116 59.8064516 588.993197 57.9815668 588.993197 54.483871 588.993197 50.3018433L588.993197 42.6221198C588.993197 35.7788018 588.993197 34.562212 588.92517 33.1935484 588.857143 31.6728111 588.44898 30.9884793 587.564626 30.7603687 587.156463 30.6082949 586.612245 30.6082949 586.340136 30.6082949 586.204082 30.6082949 586 30.5322581 586 30.3801843 586 30.1520737 586.204082 30 586.612245 30 587.904762 30 590.353741 30.1520737 590.557823 30.1520737 590.761905 30.1520737 593.210884 30 594.367347 30 594.77551 30 594.979592 30.0760369 594.979592 30.3801843 594.979592 30.5322581 594.843537 30.6082949 594.639456 30.6082949 594.367347 30.6082949 594.095238 30.6843318 593.687075 30.7603687 592.598639 30.9884793 592.326531 31.7488479 592.258503 33.2695853 592.190476 34.6382488 592.190476 35.9308756 592.190476 42.6981567L592.190476 50.3018433zM622.432609 57.1283784C624.8 51.4054054 630.395652 36.4662162 631.256522 33.3445946 631.471739 32.6756757 631.615217 32.0810811 631.615217 31.7094595 631.615217 31.3378378 631.471739 30.9662162 631.113043 30.7432432 630.61087 30.5945946 629.965217 30.5945946 629.534783 30.5945946 629.319565 30.5945946 629.104348 30.5202703 629.104348 30.3716216 629.104348 30.1486486 629.319565 30 630.036957 30 631.686957 30 633.623913 30.1486486 634.054348 30.1486486 634.269565 30.1486486 636.063043 30 637.282609 30 637.713043 30 638 30.0743243 638 30.2972973 638 30.5202703 637.856522 30.5945946 637.497826 30.5945946 637.21087 30.5945946 636.278261 30.5945946 635.48913 31.1148649 634.986957 31.4864865 634.341304 32.2297297 633.193478 35.1283784 632.763043 36.3175676 630.682609 41.4459459 628.530435 46.722973 626.019565 52.9662162 624.154348 57.5743243 623.221739 59.7297297 622.073913 62.3310811 621.930435 63 621.5 63 620.997826 63 620.782609 62.4054054 619.993478 60.3243243L609.878261 34.0878378C608.945652 31.7094595 608.371739 31.1891892 606.936957 30.8175676 606.291304 30.6689189 605.645652 30.6689189 605.358696 30.6689189 605.143478 30.6689189 605 30.5202703 605 30.3716216 605 30.1486486 605.430435 30.0743243 606.076087 30.0743243 608.084783 30.0743243 610.380435 30.222973 610.882609 30.222973 611.313043 30.222973 613.178261 30.0743243 614.756522 30.0743243 615.473913 30.0743243 615.904348 30.1486486 615.904348 30.3716216 615.904348 30.5945946 615.76087 30.6689189 615.473913 30.6689189 615.043478 30.6689189 614.254348 30.7432432 613.895652 30.8918919 613.465217 31.1148649 613.393478 31.4121622 613.393478 31.7837838 613.393478 32.3783784 613.895652 33.6418919 614.541304 35.3513514L622.432609 57.1283784zM651.8 42.8126411C651.8 36.1083521 651.8 34.9164786 651.72549 33.5756208 651.65098 32.0857788 651.278431 31.4153499 649.862745 31.1173815 649.490196 31.0428894 648.819608 30.9683973 648.372549 30.9683973 648.223529 30.9683973 648 30.8939052 648 30.744921 648 30.5214447 648.223529 30.3724605 648.670588 30.3724605 650.607843 30.3724605 653.290196 30.5214447 653.513725 30.5214447 653.811765 30.5214447 662.380392 30.5214447 663.34902 30.4469526 664.168627 30.3724605 664.839216 30.2979684 665.211765 30.2234763 665.435294 30.1489842 665.584314 30 665.807843 30 665.956863 30 665.956863 30.1489842 665.956863 30.3724605 665.956863 30.6704289 665.733333 31.1918736 665.584314 32.3837472 665.509804 32.8306998 665.435294 34.6930023 665.360784 35.214447 665.286275 35.4379233 665.211765 35.6613995 665.062745 35.6613995 664.839216 35.6613995 664.690196 35.4379233 664.690196 35.0654628 664.690196 34.7674944 664.615686 34.0225734 664.466667 33.5011287 664.168627 32.8306998 663.721569 32.3092551 661.411765 32.0112867 660.666667 31.9367946 655.972549 31.8623025 655.52549 31.8623025 655.376471 31.8623025 655.301961 32.0112867 655.301961 32.3092551L655.301961 44.1534989C655.301961 44.4514673 655.376471 44.6004515 655.52549 44.6004515 656.047059 44.6004515 661.337255 44.6004515 662.380392 44.5259594 663.423529 44.4514673 664.019608 44.3769752 664.392157 43.9300226 664.690196 43.5575621 664.839216 43.4085779 665.062745 43.4085779 665.211765 43.4085779 665.286275 43.48307 665.286275 43.7810384 665.286275 44.0045147 665.062745 44.7494357 664.913725 46.1647856 664.839216 47.0586907 664.764706 48.6230248 664.764706 48.9209932 664.764706 49.2934537 664.764706 49.7404063 664.466667 49.7404063 664.243137 49.7404063 664.168627 49.5914221 664.168627 49.3679458 664.168627 48.9209932 664.168627 48.4740406 664.019608 47.9525959 663.870588 47.3566591 663.498039 46.6117381 661.784314 46.462754 660.592157 46.3137698 656.345098 46.2392777 655.67451 46.2392777 655.45098 46.2392777 655.376471 46.3882619 655.376471 46.537246L655.376471 50.3363431C655.376471 51.8261851 655.301961 56.7426637 655.376471 57.7110609 655.52549 60.6907449 656.121569 61.2121896 660.368627 61.2121896 661.486275 61.2121896 663.34902 61.2121896 664.466667 60.765237 665.584314 60.3182844 666.105882 59.4243792 666.403922 57.7110609 666.478431 57.2641084 666.552941 57.0406321 666.776471 57.0406321 667 57.0406321 667 57.4130926 667 57.7110609 667 58.0835214 666.627451 60.9887133 666.403922 61.8826185 666.105882 63 665.733333 63 664.094118 63 657.611765 63 654.705882 62.7765237 653.513725 62.7765237 653.290196 62.7765237 650.607843 62.9255079 649.341176 62.9255079 648.894118 62.9255079 648.670588 62.8510158 648.670588 62.5530474 648.670588 62.4040632 648.745098 62.3295711 649.043137 62.3295711 649.415686 62.3295711 649.937255 62.255079 650.309804 62.1805869 651.203922 62.0316027 651.352941 61.0632054 651.576471 59.7968397 651.8 58.0090293 651.8 54.5823928 651.8 50.4853273L651.8 42.8126411zM673.77027 61.9048673C673.085586 61.6128319 673 61.4668142 673 60.2986726 673 58.1814159 673.171171 56.5022124 673.256757 55.8451327 673.342342 55.4070796 673.427928 55.1880531 673.684685 55.1880531 673.941441 55.1880531 674.027027 55.3340708 674.027027 55.6261062 674.027027 55.9911504 674.027027 56.5752212 674.198198 57.159292 674.968468 60.2986726 678.220721 61.4668142 681.472973 61.4668142 686.18018 61.4668142 688.490991 58.5464602 688.490991 55.8451327 688.490991 52.9247788 687.036036 51.2455752 682.842342 48.2522124L680.617117 46.7190265C675.396396 43.0685841 674.198198 40.4402655 674.198198 37.5929204 674.198198 33.0663717 678.135135 30 684.382883 30 686.265766 30 687.720721 30.1460177 689.004505 30.4380531 689.945946 30.5840708 690.373874 30.6570796 690.716216 30.6570796 691.144144 30.6570796 691.22973 30.7300885 691.22973 30.949115 691.22973 31.1681416 691.058559 32.5553097 691.058559 35.4026549 691.058559 36.0597345 690.972973 36.3517699 690.716216 36.3517699 690.459459 36.3517699 690.373874 36.1327434 690.288288 35.840708 690.202703 35.329646 689.945946 34.2345133 689.689189 33.7234513 689.432432 33.2853982 688.063063 31.460177 683.527027 31.460177 680.103604 31.460177 677.45045 33.2853982 677.45045 36.3517699 677.45045 38.7610619 678.81982 40.1482301 683.441441 43.4336283L684.810811 44.3827434C690.630631 48.3252212 692 50.880531 692 54.2389381 692 55.9911504 691.22973 59.130531 687.806306 61.2477876 685.666667 62.4889381 683.013514 63 680.36036 63 678.04955 63 675.738739 62.7079646 673.77027 61.9048673z"/>
  </g>
</svg>
